<?xml version="1.0" encoding="UTF-8" standalone="no"?>
<!-- Created with Inkscape (http://www.inkscape.org/) -->

<svg
   version="1.1"
   id="svg1"
   width="666.69336"
   height="317.77332"
   viewBox="0 0 666.69336 317.77332"
   sodipodi:docname="skyline-2.svg"
   inkscape:version="1.4.2 (ebf0e940, 2025-05-08)"
   xmlns:inkscape="http://www.inkscape.org/namespaces/inkscape"
   xmlns:sodipodi="http://sodipodi.sourceforge.net/DTD/sodipodi-0.dtd"
   xmlns="http://www.w3.org/2000/svg"
   xmlns:svg="http://www.w3.org/2000/svg">
  <defs
     id="defs1" />
  <sodipodi:namedview
     id="namedview1"
     pagecolor="#ffffff"
     bordercolor="#000000"
     borderopacity="0.25"
     inkscape:showpageshadow="2"
     inkscape:pageopacity="0.0"
     inkscape:pagecheckerboard="0"
     inkscape:deskcolor="#d1d1d1"
     inkscape:zoom="0.89003575"
     inkscape:cx="314.03233"
     inkscape:cy="309.53813"
     inkscape:window-width="1512"
     inkscape:window-height="920"
     inkscape:window-x="0"
     inkscape:window-y="34"
     inkscape:window-maximized="0"
     inkscape:current-layer="g2">
    <inkscape:page
       x="0"
       y="0"
       inkscape:label="1"
       id="page1"
       width="666.69336"
       height="317.77332"
       margin="0"
       bleed="0" />
  </sodipodi:namedview>
  <g
     id="g1"
     inkscape:groupmode="layer"
     inkscape:label="1">
    <g
       id="group-R5">
      <g
         id="g2"
         transform="translate(-1.25e-6,-113.69194)">
        <path
           id="path9"
           style="fill:#98c1dc;fill-opacity:1;fill-rule:nonzero;stroke:none;stroke-width:0.133333"
           d="m 19.709762,230.06869 v 0.72852 h -1.548828 v 0.91797 H 16.95195 v 2.0332 h 0.822265 v 20.01367 h -7.261718 v 14.15821 H 3.471481 v -1.81446 h -3.48632813 v 11.40039 H 3.471481 v -0.29101 h 55.001953 55.001956 v 0.29101 h 3.48633 V 266.1058 h -3.48633 v 1.81446 h -7.04101 v -14.15821 h -7.261727 v -20.01367 h 0.822263 v -2.0332 h -1.208982 v -0.91797 h -1.550781 v -0.72852 H 85.717575 v 0.72852 h -1.744141 v 0.91797 h -1.355469 v 2.0332 h 1.017579 v 1.22461 H 33.311325 v -1.22461 h 1.017578 v -2.0332 h -1.355469 v -0.91797 h -1.74414 v -0.72852 z m 1.576172,6.29493 c 0.6396,0 1.160156,0.52015 1.160156,1.16015 v 16.51953 h -2.320312 v -16.51953 c 0,-0.64 0.520023,-1.16015 1.160156,-1.16015 z m 4.107422,0 c 0.652534,0 1.173828,0.52015 1.173828,1.16015 V 254.0433 H 24.2332 v -16.51953 c 0,-0.64 0.520023,-1.16015 1.160156,-1.16015 z m 4.119141,0 c 0.640134,0 1.160156,0.52015 1.160156,1.16015 v 16.51953 h -2.332031 v -16.51953 c 0,-0.64 0.519342,-1.16015 1.171875,-1.16015 z m 57.779297,0.27734 c 0.6396,0 1.160156,0.52078 1.160156,1.16211 v 16.51758 h -2.320313 v -16.51758 c 0,-0.64133 0.520026,-1.16211 1.160157,-1.16211 z m 4.107421,0 c 0.65253,0 1.171875,0.52078 1.171875,1.16211 v 16.51758 h -2.332031 v -16.51758 c 0,-0.64133 0.520026,-1.16211 1.160156,-1.16211 z m 4.119141,0 c 0.64013,0 1.160156,0.52078 1.160156,1.16211 v 16.51758 h -2.333984 v -16.51758 c 0,-0.64133 0.521298,-1.16211 1.173828,-1.16211 z" />
        <path
           id="path16"
           d="m 632.21913,290.84127 -0.0173,-0.30133 -0.13467,-2.59334 -1.29866,0.0693 -1.86,-59.748 -2.79334,0.148 -0.12266,-0.056 -2.79867,-0.0147 0.96667,59.768 -1.29867,-0.008 -0.0147,2.59733 v 0.30134 l 4.48,0.0253 10e-4,0.0693 4.89066,-0.25733"
           style="fill:#96c0db;fill-opacity:1;fill-rule:nonzero;stroke:none;stroke-width:0.133333" />
        <path
           id="path17"
           d="m 645.2098,292.23994 -0.016,-0.3 -0.136,-2.59467 -1.29733,0.0693 -3.23734,-64.42933 -5.71466,0.0773 2.344,64.45066 -1.3,-0.008 -0.012,2.59733 -0.003,0.3 4.48133,0.0253 10e-4,0.0707 4.88933,-0.25866"
           style="fill:#96c0db;fill-opacity:1;fill-rule:nonzero;stroke:none;stroke-width:0.133333" />
        <path
           id="path18"
           d="m 660.6498,293.1826 -0.016,-0.3 -0.136,-2.59466 -1.29867,0.068 -4.27466,-70.46667 -5.71467,0.0747 3.38267,70.49066 -1.3,-0.007 -0.0133,2.59733 -10e-4,0.3 4.48133,0.024 10e-4,0.0707 4.88933,-0.25734"
           style="fill:#96c0db;fill-opacity:1;fill-rule:nonzero;stroke:none;stroke-width:0.133333" />
        <path
           id="path19"
           d="m 624.26847,228.6586 c 0,0 -0.004,-0.14666 -0.0107,-0.39066 -0.0333,-1.11467 -0.112,-4.24933 0.0107,-4.55733 0.14933,-0.37334 0.824,-0.74934 0.824,-0.74934 l 0.97466,-3.82266 -0.932,-2.248 -0.492,-3.29734 22.56134,-8.996 c 0,0 2.848,2.09867 2.92266,2.69734 0.076,0.60133 0.82534,2.25066 0.75067,2.77466 -0.076,0.52534 -0.6,2.324 -0.6,2.324 0,0 2.47333,1.2 3.072,2.848 0.60133,1.64934 0.52533,5.09734 0.52533,5.09734 l -27.88133,9.81866"
           style="fill:#96c0db;fill-opacity:1;fill-rule:nonzero;stroke:none;stroke-width:0.133333" />
        <path
           id="path20"
           d="m 539.59647,276.1786 0.72533,-16.496 -0.72533,-0.94133 4.47333,-5.79867 14.14,0.97334 v -1.348 l -0.724,-0.9 10.268,-3.67334 2.99867,1.19867 1.42533,-0.29867 v -5.84533 l -0.65733,-0.52533 0.65733,-0.74934 c 0,0 0.47334,-6.52133 6.56934,-8.42 l -0.57334,-1.32533 1.08534,-1.42267 v -0.824 l -0.71067,-0.78666 c 0,0 0.48667,-1.35067 1.612,-1.276 0,0 -0.14933,-1.57333 0.37467,-1.68667 0,0 -0.45067,-1.048 0.37333,-1.19733 0,0 0.86267,0.224 0.488,1.124 0,0 0.11467,0.31867 0.0947,0.88 -0.02,0.56133 10e-4,1.012 10e-4,1.012 l 0.74667,0.20666 c 0,0 0.48933,0.244 0.71333,1.01067 l -0.32,0.376 -0.0373,1.38533 0.712,1.368 -0.48667,1.25734 c 0,0 5.65866,2.21066 6.22133,9.51733 l 0.52533,0.15067 -0.44933,1.19733 v 4.57333 l 4.45733,1.612 0.9,-1.8 3.12934,0.132 0.788,1.068 1.348,0.0373 0.61866,0.65866 3.07334,0.27867 -0.724,1.33733 v 7.91867 l 5.296,0.3 9.744,0.97467 v 18.288 l -78.152,-3.52134"
           style="fill:#96c0db;fill-opacity:1;fill-rule:nonzero;stroke:none;stroke-width:0.133333" />
        <path
           id="path146"
           d="M 666.68047,293.43966 H 0.01289475 V 272.5786 H 666.68047 v 20.86106"
           style="fill:#98c1dc;fill-opacity:1;fill-rule:nonzero;stroke:none;stroke-width:0.135721" />
        <path
           id="path146-4"
           d="M 666.68047,430.72616 H 0.01289587 V 272.5786 H 666.68047 v 158.14756"
           style="fill:#98c1dc;fill-opacity:1;fill-rule:nonzero;stroke:none;stroke-width:0.373688" />
      </g>
    </g>
  </g>
</svg>
