<?xml version="1.0" encoding="UTF-8" standalone="no"?>
<!-- Created with Inkscape (http://www.inkscape.org/) -->

<svg
   version="1.1"
   id="svg1"
   width="666.69336"
   height="317.77332"
   viewBox="0 0 666.69336 317.77332"
   sodipodi:docname="skyline-2.svg"
   inkscape:version="1.4.2 (ebf0e940, 2025-05-08)"
   xmlns:inkscape="http://www.inkscape.org/namespaces/inkscape"
   xmlns:sodipodi="http://sodipodi.sourceforge.net/DTD/sodipodi-0.dtd"
   xmlns="http://www.w3.org/2000/svg"
   xmlns:svg="http://www.w3.org/2000/svg">
  <defs
     id="defs1" />
  <sodipodi:namedview
     id="namedview1"
     pagecolor="#ffffff"
     bordercolor="#000000"
     borderopacity="0.25"
     inkscape:showpageshadow="2"
     inkscape:pageopacity="0.0"
     inkscape:pagecheckerboard="0"
     inkscape:deskcolor="#d1d1d1"
     inkscape:zoom="4.8649263"
     inkscape:cx="100.61817"
     inkscape:cy="286.84916"
     inkscape:window-width="1512"
     inkscape:window-height="920"
     inkscape:window-x="0"
     inkscape:window-y="34"
     inkscape:window-maximized="0"
     inkscape:current-layer="group-R5">
    <inkscape:page
       x="0"
       y="0"
       inkscape:label="1"
       id="page1"
       width="666.69336"
       height="317.77332"
       margin="0"
       bleed="0" />
  </sodipodi:namedview>
  <g
     id="g1"
     inkscape:groupmode="layer"
     inkscape:label="1">
    <g
       id="group-R5">
      <path
         id="path9"
         style="fill:#98c1dc;fill-opacity:1;fill-rule:nonzero;stroke:none;stroke-width:0.133333"
         d="M 19.722656 254.40234 L 19.722656 255.13086 L 18.173828 255.13086 L 18.173828 256.04883 L 16.964844 256.04883 L 16.964844 258.08203 L 17.787109 258.08203 L 17.787109 278.0957 L 10.525391 278.0957 L 10.525391 292.25391 L 3.484375 292.25391 L 3.484375 290.43945 L -0.001953125 290.43945 L -0.001953125 301.83984 L 3.484375 301.83984 L 3.484375 301.54883 L 58.486328 301.54883 L 113.48828 301.54883 L 113.48828 301.83984 L 116.97461 301.83984 L 116.97461 290.43945 L 113.48828 290.43945 L 113.48828 292.25391 L 106.44727 292.25391 L 106.44727 278.0957 L 99.185547 278.0957 L 99.185547 258.08203 L 100.00781 258.08203 L 100.00781 256.04883 L 98.798828 256.04883 L 98.798828 255.13086 L 97.248047 255.13086 L 97.248047 254.40234 L 85.730469 254.40234 L 85.730469 255.13086 L 83.986328 255.13086 L 83.986328 256.04883 L 82.630859 256.04883 L 82.630859 258.08203 L 83.648438 258.08203 L 83.648438 259.30664 L 33.324219 259.30664 L 33.324219 258.08203 L 34.341797 258.08203 L 34.341797 256.04883 L 32.986328 256.04883 L 32.986328 255.13086 L 31.242188 255.13086 L 31.242188 254.40234 L 19.722656 254.40234 z M 21.298828 260.69727 C 21.938428 260.69727 22.458984 261.21742 22.458984 261.85742 L 22.458984 278.37695 L 20.138672 278.37695 L 20.138672 261.85742 C 20.138672 261.21742 20.658695 260.69727 21.298828 260.69727 z M 25.40625 260.69727 C 26.058784 260.69727 26.580078 261.21742 26.580078 261.85742 L 26.580078 278.37695 L 24.246094 278.37695 L 24.246094 261.85742 C 24.246094 261.21742 24.766117 260.69727 25.40625 260.69727 z M 29.525391 260.69727 C 30.165525 260.69727 30.685547 261.21742 30.685547 261.85742 L 30.685547 278.37695 L 28.353516 278.37695 L 28.353516 261.85742 C 28.353516 261.21742 28.872858 260.69727 29.525391 260.69727 z M 87.304688 260.97461 C 87.944288 260.97461 88.464844 261.49539 88.464844 262.13672 L 88.464844 278.6543 L 86.144531 278.6543 L 86.144531 262.13672 C 86.144531 261.49539 86.664557 260.97461 87.304688 260.97461 z M 91.412109 260.97461 C 92.064639 260.97461 92.583984 261.49539 92.583984 262.13672 L 92.583984 278.6543 L 90.251953 278.6543 L 90.251953 262.13672 C 90.251953 261.49539 90.771979 260.97461 91.412109 260.97461 z M 95.53125 260.97461 C 96.17138 260.97461 96.691406 261.49539 96.691406 262.13672 L 96.691406 278.6543 L 94.357422 278.6543 L 94.357422 262.13672 C 94.357422 261.49539 94.87872 260.97461 95.53125 260.97461 z " />
      <path
         id="path16"
         d="m 632.23202,315.17492 -0.0173,-0.30133 -0.13467,-2.59334 -1.29866,0.0693 -1.86,-59.748 -2.79334,0.148 -0.12266,-0.056 -2.79867,-0.0147 0.96667,59.768 -1.29867,-0.008 -0.0147,2.59733 v 0.30134 l 4.48,0.0253 10e-4,0.0693 4.89066,-0.25733"
         style="fill:#96c0db;fill-opacity:1;fill-rule:nonzero;stroke:none;stroke-width:0.133333" />
      <path
         id="path17"
         d="m 645.22269,316.57359 -0.016,-0.3 -0.136,-2.59467 -1.29733,0.0693 -3.23734,-64.42933 -5.71466,0.0773 2.344,64.45066 -1.3,-0.008 -0.012,2.59733 -0.003,0.3 4.48133,0.0253 10e-4,0.0707 4.88933,-0.25866"
         style="fill:#96c0db;fill-opacity:1;fill-rule:nonzero;stroke:none;stroke-width:0.133333" />
      <path
         id="path18"
         d="m 660.66269,317.51625 -0.016,-0.3 -0.136,-2.59466 -1.29867,0.068 -4.27466,-70.46667 -5.71467,0.0747 3.38267,70.49066 -1.3,-0.007 -0.0133,2.59733 -10e-4,0.3 4.48133,0.024 10e-4,0.0707 4.88933,-0.25734"
         style="fill:#96c0db;fill-opacity:1;fill-rule:nonzero;stroke:none;stroke-width:0.133333" />
      <path
         id="path19"
         d="m 624.28136,252.99225 c 0,0 -0.004,-0.14666 -0.0107,-0.39066 -0.0333,-1.11467 -0.112,-4.24933 0.0107,-4.55733 0.14933,-0.37334 0.824,-0.74934 0.824,-0.74934 l 0.97466,-3.82266 -0.932,-2.248 -0.492,-3.29734 22.56134,-8.996 c 0,0 2.848,2.09867 2.92266,2.69734 0.076,0.60133 0.82534,2.25066 0.75067,2.77466 -0.076,0.52534 -0.6,2.324 -0.6,2.324 0,0 2.47333,1.2 3.072,2.848 0.60133,1.64934 0.52533,5.09734 0.52533,5.09734 l -27.88133,9.81866"
         style="fill:#96c0db;fill-opacity:1;fill-rule:nonzero;stroke:none;stroke-width:0.133333" />
      <path
         id="path20"
         d="m 539.60936,300.51225 0.72533,-16.496 -0.72533,-0.94133 4.47333,-5.79867 14.14,0.97334 v -1.348 l -0.724,-0.9 10.268,-3.67334 2.99867,1.19867 1.42533,-0.29867 v -5.84533 l -0.65733,-0.52533 0.65733,-0.74934 c 0,0 0.47334,-6.52133 6.56934,-8.42 l -0.57334,-1.32533 1.08534,-1.42267 v -0.824 l -0.71067,-0.78666 c 0,0 0.48667,-1.35067 1.612,-1.276 0,0 -0.14933,-1.57333 0.37467,-1.68667 0,0 -0.45067,-1.048 0.37333,-1.19733 0,0 0.86267,0.224 0.488,1.124 0,0 0.11467,0.31867 0.0947,0.88 -0.02,0.56133 10e-4,1.012 10e-4,1.012 l 0.74667,0.20666 c 0,0 0.48933,0.244 0.71333,1.01067 l -0.32,0.376 -0.0373,1.38533 0.712,1.368 -0.48667,1.25734 c 0,0 5.65866,2.21066 6.22133,9.51733 l 0.52533,0.15067 -0.44933,1.19733 v 4.57333 l 4.45733,1.612 0.9,-1.8 3.12934,0.132 0.788,1.068 1.348,0.0373 0.61866,0.65866 3.07334,0.27867 -0.724,1.33733 v 7.91867 l 5.296,0.3 9.744,0.97467 v 18.288 l -78.152,-3.52134"
         style="fill:#96c0db;fill-opacity:1;fill-rule:nonzero;stroke:none;stroke-width:0.133333" />
      <path
         id="path146"
         d="M 666.69336,317.77331 H 0.02578875 V 296.91225 H 666.69336 v 20.86106"
         style="fill:#98c1dc;fill-opacity:1;fill-rule:nonzero;stroke:none;stroke-width:0.135721" />
    </g>
  </g>
</svg>
