<?xml version="1.0" encoding="UTF-8" standalone="no"?>
<!-- Created with Inkscape (http://www.inkscape.org/) -->

<svg
   version="1.1"
   id="svg1"
   width="666.69336"
   height="317.77332"
   viewBox="0 0 666.69336 317.77332"
   sodipodi:docname="skyline-3.svg"
   inkscape:version="1.4.2 (ebf0e940, 2025-05-08)"
   xmlns:inkscape="http://www.inkscape.org/namespaces/inkscape"
   xmlns:sodipodi="http://sodipodi.sourceforge.net/DTD/sodipodi-0.dtd"
   xmlns="http://www.w3.org/2000/svg"
   xmlns:svg="http://www.w3.org/2000/svg">
  <defs
     id="defs1" />
  <sodipodi:namedview
     id="namedview1"
     pagecolor="#ffffff"
     bordercolor="#000000"
     borderopacity="0.25"
     inkscape:showpageshadow="2"
     inkscape:pageopacity="0.0"
     inkscape:pagecheckerboard="0"
     inkscape:deskcolor="#d1d1d1"
     inkscape:zoom="1.8400097"
     inkscape:cx="402.44354"
     inkscape:cy="268.74859"
     inkscape:window-width="1512"
     inkscape:window-height="920"
     inkscape:window-x="0"
     inkscape:window-y="34"
     inkscape:window-maximized="0"
     inkscape:current-layer="group-R5">
    <inkscape:page
       x="0"
       y="0"
       inkscape:label="1"
       id="page1"
       width="666.69336"
       height="317.77332"
       margin="0"
       bleed="0" />
  </sodipodi:namedview>
  <g
     id="g1"
     inkscape:groupmode="layer"
     inkscape:label="1">
    <g
       id="group-R5"
       transform="matrix(1,0,0,0.99530089,0,0.94635665)">
      <path
         id="path5"
         d="m 504.83586,251.59552 h -27.83554 v 46.26495 h 27.83554 v -46.26495"
         style="fill:#d5e9f4;fill-opacity:1;fill-rule:nonzero;stroke:none;stroke-width:0.0910835" />
      <path
         id="path28"
         d="m 544.09203,306.49225 h -96.616 v -47.352 h 96.616 v 47.352"
         style="fill:#5a7b97;fill-opacity:1;fill-rule:nonzero;stroke:none;stroke-width:0.133333" />
      <path
         id="path29"
         d="m 460.62936,249.77092 v -8.54 h -1.70933 v -2.39866 h 37.13066 v 20.30799 h -51.33066 l -1.612,-1.612 17.52133,-7.75733"
         style="fill:#5a7b97;fill-opacity:1;fill-rule:nonzero;stroke:none;stroke-width:0.133333" />
      <path
         id="path30"
         d="m 496.05069,266.30425 h -48.57466 v -7.164 h 48.57466 v 7.164"
         style="fill:#7299b5;fill-opacity:1;fill-rule:nonzero;stroke:none;stroke-width:0.133333" />
      <path
         id="path31"
         d="m 451.6867,306.49225 h -4.21067 v -40.188 h 4.21067 v 40.188"
         style="fill:#7299b5;fill-opacity:1;fill-rule:nonzero;stroke:none;stroke-width:0.133333" />
      <path
         id="path32"
         d="m 464.84136,306.49225 h -4.212 v -40.188 h 4.212 v 40.188"
         style="fill:#7299b5;fill-opacity:1;fill-rule:nonzero;stroke:none;stroke-width:0.133333" />
      <path
         id="path33"
         d="m 477.99203,306.49225 h -4.21067 v -40.188 h 4.21067 v 40.188"
         style="fill:#7299b5;fill-opacity:1;fill-rule:nonzero;stroke:none;stroke-width:0.133333" />
      <path
         id="path34"
         d="m 491.14536,306.49225 h -4.212 v -40.188 h 4.212 v 40.188"
         style="fill:#7299b5;fill-opacity:1;fill-rule:nonzero;stroke:none;stroke-width:0.133333" />
      <path
         id="path35"
         d="m 530.94003,249.77092 v -8.54 h 1.708 v -2.39866 h -37.13067 v 20.30799 h 51.33067 l 1.61333,-1.612 -17.52133,-7.75733"
         style="fill:#5a7b97;fill-opacity:1;fill-rule:nonzero;stroke:none;stroke-width:0.133333" />
      <path
         id="path36"
         d="m 495.51736,266.30425 h 48.57467 v -7.164 h -48.57467 v 7.164"
         style="fill:#7299b5;fill-opacity:1;fill-rule:nonzero;stroke:none;stroke-width:0.133333" />
      <path
         id="path37"
         d="m 539.88003,306.49225 h 4.212 v -40.188 h -4.212 v 40.188"
         style="fill:#7299b5;fill-opacity:1;fill-rule:nonzero;stroke:none;stroke-width:0.133333" />
      <path
         id="path38"
         d="m 526.72803,306.49225 h 4.212 v -40.188 h -4.212 v 40.188"
         style="fill:#7299b5;fill-opacity:1;fill-rule:nonzero;stroke:none;stroke-width:0.133333" />
      <path
         id="path39"
         d="m 513.57603,306.49225 h 4.212 v -40.188 h -4.212 v 40.188"
         style="fill:#7299b5;fill-opacity:1;fill-rule:nonzero;stroke:none;stroke-width:0.133333" />
      <path
         id="path40"
         d="m 500.42269,306.49225 h 4.21334 v -40.188 h -4.21334 v 40.188"
         style="fill:#7299b5;fill-opacity:1;fill-rule:nonzero;stroke:none;stroke-width:0.133333" />
      <path
         id="path41"
         d="m 527.80136,242.89492 c 0,8.972 -14.09467,16.24533 -31.48133,16.24533 -17.38534,0 -31.47867,-7.27333 -31.47867,-16.24533 0,-8.97466 14.09333,-16.248 31.47867,-16.248 17.38666,0 31.48133,7.27334 31.48133,16.248"
         style="fill:#5a7b97;fill-opacity:1;fill-rule:nonzero;stroke:none;stroke-width:0.133333" />
      <path
         id="path42"
         d="m 447.47603,257.69225 48.04133,-19.37999 46.468,19.37999 z"
         style="fill:#7299b5;fill-opacity:1;fill-rule:nonzero;stroke:none;stroke-width:0.133333" />
      <path
         id="path48"
         d="m 369.4787,262.57092 h -0.30134 v -0.584 h -0.264 v 0.584 h -0.34 v 0.30267 h 0.34 v 2.05733 h 0.264 v -2.05733 h 0.30134 v -0.30267"
         style="fill:#5a7b97;fill-opacity:1;fill-rule:nonzero;stroke:none;stroke-width:0.133333" />
      <path
         id="path51"
         d="m 370.89336,293.08425 h -0.52266 l -0.69734,-26.096 h -1.35733 l -0.69467,26.096 h -0.524 l -0.55733,9.33067 h 2.45467 2.45466 l -0.556,-9.33067"
         style="fill:#5a7b97;fill-opacity:1;fill-rule:nonzero;stroke:none;stroke-width:0.133333" />
      <path
         id="path52"
         d="m 368.9947,267.17625 -0.468,-1.56266 0.56133,-1.25067 0.43867,1.208 -0.532,1.60533"
         style="fill:#5a7b97;fill-opacity:1;fill-rule:nonzero;stroke:none;stroke-width:0.133333" />
      <path
         id="path53"
         d="m 434.3267,270.07492 -1.58267,1.56133 v 28.92667 h -5.58667 c 0.0427,-0.23733 0.0627,-0.47867 0.0627,-0.72667 v -11.02933 c 0,-2.25467 -1.82933,-4.08667 -4.08533,-4.08667 h -0.092 c -2.256,0 -4.08534,1.832 -4.08534,4.08667 v 11.02933 c 0,0.248 0.0213,0.48934 0.0627,0.72667 h -5.62133 c 0.001,-0.0533 0.001,-0.10667 0.001,-0.16 v -17.884 c 0,-3.65867 -2.96533,-6.624 -6.624,-6.624 h -0.148 c -3.65867,0 -6.62533,2.96533 -6.62533,6.624 v 17.884 c 0,0.0533 0,0.10667 10e-4,0.16 h -5.64667 c 0.0413,-0.23733 0.0627,-0.47867 0.0627,-0.72667 v -11.02933 c 0,-2.25467 -1.82667,-4.08667 -4.08667,-4.08667 h -0.0893 c -2.25733,0 -4.08533,1.832 -4.08533,4.08667 v 11.02933 c 0,0.248 0.0213,0.48934 0.064,0.72667 h -5.56134 v -28.92667 l -1.58533,-1.56133 0.284,-0.544 1.25333,-0.11867 0.048,-0.61466 0.0253,-1.84534 0.54266,-0.37866 0.11867,-7.47334 h -0.40267 l -0.568,-1.232 26.04534,-0.0773 v 0 h 0.27866 0.28 v 0 l 26.04534,0.0773 -0.568,1.232 h -0.40267 l 0.11733,7.47334 0.54534,0.37866 0.0253,1.84534 0.044,0.61466 1.25333,0.11867 0.28534,0.544"
         style="fill:#5a7b97;fill-opacity:1;fill-rule:nonzero;stroke:none;stroke-width:0.133333" />
      <path
         id="path54"
         d="m 238.0267,290.94692 h -23.944 v 11.468 h 23.944 v -11.468"
         style="fill:#5a7b97;fill-opacity:1;fill-rule:nonzero;stroke:none;stroke-width:0.133333" />
      <path
         id="path61"
         d="M 106.16484,245.34692 H 29.024171 v -5.47466 h 77.140669 v 5.47466"
         style="fill:#5a7b97;fill-opacity:1;fill-rule:nonzero;stroke:none;stroke-width:0.133333" />
      <path
         id="path62"
         d="m 37.811238,286.40692 c -2.195867,0 -3.291734,0 -5.487467,0 0.2244,-13.336 0.4504,-26.66933 0.6744,-40.004 1.6552,0 2.4828,0 4.138533,0 0.223467,13.33467 0.451067,26.668 0.674534,40.004"
         style="fill:#5a7b97;fill-opacity:1;fill-rule:nonzero;stroke:none;stroke-width:0.133333" />
      <path
         id="path63"
         d="m 37.920571,246.29759 c 0,0.17867 -0.1416,0.32667 -0.318267,0.32667 h -5.071866 c -0.174933,0 -0.316133,-0.148 -0.316133,-0.32667 v 0 c 0,-0.184 0.1412,-0.33067 0.316133,-0.33067 h 5.071866 c 0.176667,0 0.318267,0.14667 0.318267,0.33067 v 0"
         style="fill:#5a7b97;fill-opacity:1;fill-rule:nonzero;stroke:none;stroke-width:0.133333" />
      <path
         id="path64"
         d="m 38.305504,245.77626 c 0,0.208 -0.1604,0.372 -0.360933,0.372 h -5.7532 c -0.2,0 -0.361466,-0.164 -0.361466,-0.372 v 0 c 0,-0.20534 0.161466,-0.372 0.361466,-0.372 h 5.7532 c 0.200533,0 0.360933,0.16666 0.360933,0.372 v 0"
         style="fill:#5a7b97;fill-opacity:1;fill-rule:nonzero;stroke:none;stroke-width:0.133333" />
      <path
         id="path65"
         d="m 38.272171,288.42692 c 0,0.62533 -0.419333,1.13067 -0.935467,1.13067 h -4.538533 c -0.516133,0 -0.934933,-0.50534 -0.934933,-1.13067 v -1.624 c 0,-0.62533 0.4188,-1.13333 0.934933,-1.13333 h 4.538533 c 0.516134,0 0.935467,0.508 0.935467,1.13333 v 1.624"
         style="fill:#5a7b97;fill-opacity:1;fill-rule:nonzero;stroke:none;stroke-width:0.133333" />
      <path
         id="path66"
         d="m 38.900304,289.74692 h -7.665199 v -2.828 h 7.665199 v 2.828"
         style="fill:#5a7b97;fill-opacity:1;fill-rule:nonzero;stroke:none;stroke-width:0.133333" />
      <path
         id="path67"
         d="m 39.479371,290.50559 h -8.823866 v -2.69867 h 8.823866 v 2.69867"
         style="fill:#5a7b97;fill-opacity:1;fill-rule:nonzero;stroke:none;stroke-width:0.133333" />
      <path
         id="path68"
         d="m 52.699771,286.40692 c -2.195867,0 -3.291734,0 -5.487467,0 0.2244,-13.336 0.4504,-26.66933 0.6744,-40.004 1.655733,0 2.4828,0 4.138533,0 0.223467,13.33467 0.4516,26.668 0.674534,40.004"
         style="fill:#5a7b97;fill-opacity:1;fill-rule:nonzero;stroke:none;stroke-width:0.133333" />
      <path
         id="path69"
         d="m 52.809104,246.29759 c 0,0.17867 -0.1416,0.32667 -0.318267,0.32667 h -5.071866 c -0.174934,0 -0.316134,-0.148 -0.316134,-0.32667 v 0 c 0,-0.184 0.1412,-0.33067 0.316134,-0.33067 h 5.071866 c 0.176667,0 0.318267,0.14667 0.318267,0.33067 v 0"
         style="fill:#5a7b97;fill-opacity:1;fill-rule:nonzero;stroke:none;stroke-width:0.133333" />
      <path
         id="path70"
         d="m 53.194037,245.77626 c 0,0.208 -0.159866,0.372 -0.3604,0.372 h -5.753733 c -0.2,0 -0.361467,-0.164 -0.361467,-0.372 v 0 c 0,-0.20534 0.161467,-0.372 0.361467,-0.372 h 5.753733 c 0.200534,0 0.3604,0.16666 0.3604,0.372 v 0"
         style="fill:#5a7b97;fill-opacity:1;fill-rule:nonzero;stroke:none;stroke-width:0.133333" />
      <path
         id="path71"
         d="m 53.160704,288.42692 c 0,0.62533 -0.419333,1.13067 -0.935467,1.13067 h -4.538533 c -0.516133,0 -0.934933,-0.50534 -0.934933,-1.13067 v -1.624 c 0,-0.62533 0.4188,-1.13333 0.934933,-1.13333 h 4.538533 c 0.516134,0 0.935467,0.508 0.935467,1.13333 v 1.624"
         style="fill:#5a7b97;fill-opacity:1;fill-rule:nonzero;stroke:none;stroke-width:0.133333" />
      <path
         id="path72"
         d="m 53.789371,289.74692 h -7.6656 v -2.828 h 7.6656 v 2.828"
         style="fill:#5a7b97;fill-opacity:1;fill-rule:nonzero;stroke:none;stroke-width:0.133333" />
      <path
         id="path73"
         d="m 54.368037,290.50559 h -8.823466 v -2.69867 h 8.823466 v 2.69867"
         style="fill:#5a7b97;fill-opacity:1;fill-rule:nonzero;stroke:none;stroke-width:0.133333" />
      <path
         id="path74"
         d="m 67.588837,286.40692 c -2.1964,0 -3.292267,0 -5.488,0 0.2244,-13.336 0.450533,-26.66933 0.6744,-40.004 1.655733,0 2.483333,0 4.138533,0 0.223467,13.33467 0.4516,26.668 0.675067,40.004"
         style="fill:#5a7b97;fill-opacity:1;fill-rule:nonzero;stroke:none;stroke-width:0.133333" />
      <path
         id="path75"
         d="m 67.697637,246.29759 c 0,0.17867 -0.1416,0.32667 -0.318267,0.32667 h -5.071333 c -0.174933,0 -0.316667,-0.148 -0.316667,-0.32667 v 0 c 0,-0.184 0.141734,-0.33067 0.316667,-0.33067 h 5.071333 c 0.176667,0 0.318267,0.14667 0.318267,0.33067 v 0"
         style="fill:#5a7b97;fill-opacity:1;fill-rule:nonzero;stroke:none;stroke-width:0.133333" />
      <path
         id="path76"
         d="m 68.08257,245.77626 c 0,0.208 -0.159866,0.372 -0.3604,0.372 h -5.753733 c -0.199467,0 -0.360933,-0.164 -0.360933,-0.372 v 0 c 0,-0.20534 0.161466,-0.372 0.360933,-0.372 h 5.753733 c 0.200534,0 0.3604,0.16666 0.3604,0.372 v 0"
         style="fill:#5a7b97;fill-opacity:1;fill-rule:nonzero;stroke:none;stroke-width:0.133333" />
      <path
         id="path77"
         d="m 68.04977,288.42692 c 0,0.62533 -0.419866,1.13067 -0.936,1.13067 h -4.538533 c -0.516133,0 -0.9348,-0.50534 -0.9348,-1.13067 v -1.624 c 0,-0.62533 0.418667,-1.13333 0.9348,-1.13333 h 4.538533 c 0.516134,0 0.936,0.508 0.936,1.13333 v 1.624"
         style="fill:#5a7b97;fill-opacity:1;fill-rule:nonzero;stroke:none;stroke-width:0.133333" />
      <path
         id="path78"
         d="m 68.677904,289.74692 h -7.6656 v -2.828 h 7.6656 v 2.828"
         style="fill:#5a7b97;fill-opacity:1;fill-rule:nonzero;stroke:none;stroke-width:0.133333" />
      <path
         id="path79"
         d="m 69.25657,290.50559 h -8.823466 v -2.69867 h 8.823466 v 2.69867"
         style="fill:#5a7b97;fill-opacity:1;fill-rule:nonzero;stroke:none;stroke-width:0.133333" />
      <path
         id="path80"
         d="m 82.477369,286.40692 c -2.1964,0 -3.29173,0 -5.487466,0 0.2244,-13.336 0.450534,-26.66933 0.673867,-40.004 1.655729,0 2.483329,0 4.139069,0 0.22293,13.33467 0.45106,26.668 0.67453,40.004"
         style="fill:#5a7b97;fill-opacity:1;fill-rule:nonzero;stroke:none;stroke-width:0.133333" />
      <path
         id="path81"
         d="m 82.586699,246.29759 c 0,0.17867 -0.14213,0.32667 -0.31866,0.32667 H 77.19657 c -0.174933,0 -0.316667,-0.148 -0.316667,-0.32667 v 0 c 0,-0.184 0.141734,-0.33067 0.316667,-0.33067 h 5.071469 c 0.17653,0 0.31866,0.14667 0.31866,0.33067 v 0"
         style="fill:#5a7b97;fill-opacity:1;fill-rule:nonzero;stroke:none;stroke-width:0.133333" />
      <path
         id="path82"
         d="m 82.971639,245.77626 c 0,0.208 -0.1604,0.372 -0.36094,0.372 h -5.753196 c -0.2,0 -0.361466,-0.164 -0.361466,-0.372 v 0 c 0,-0.20534 0.161466,-0.372 0.361466,-0.372 h 5.753196 c 0.20054,0 0.36094,0.16666 0.36094,0.372 v 0"
         style="fill:#5a7b97;fill-opacity:1;fill-rule:nonzero;stroke:none;stroke-width:0.133333" />
      <path
         id="path83"
         d="m 82.938299,288.42692 c 0,0.62533 -0.41933,1.13067 -0.936,1.13067 h -4.537996 c -0.516666,0 -0.934933,-0.50534 -0.934933,-1.13067 v -1.624 c 0,-0.62533 0.418267,-1.13333 0.934933,-1.13333 h 4.537996 c 0.51667,0 0.936,0.508 0.936,1.13333 v 1.624"
         style="fill:#5a7b97;fill-opacity:1;fill-rule:nonzero;stroke:none;stroke-width:0.133333" />
      <path
         id="path84"
         d="M 83.566439,289.74692 H 75.90137 v -2.828 h 7.665069 v 2.828"
         style="fill:#5a7b97;fill-opacity:1;fill-rule:nonzero;stroke:none;stroke-width:0.133333" />
      <path
         id="path85"
         d="m 84.145099,290.50559 h -8.823462 v -2.69867 h 8.823462 v 2.69867"
         style="fill:#5a7b97;fill-opacity:1;fill-rule:nonzero;stroke:none;stroke-width:0.133333" />
      <path
         id="path86"
         d="m 97.365899,286.40692 c -2.19586,0 -3.29173,0 -5.48746,0 0.2244,-13.336 0.45053,-26.66933 0.6744,-40.004 1.6552,0 2.4828,0 4.13853,0 0.22347,13.33467 0.45107,26.668 0.67453,40.004"
         style="fill:#5a7b97;fill-opacity:1;fill-rule:nonzero;stroke:none;stroke-width:0.133333" />
      <path
         id="path87"
         d="m 97.475239,246.29759 c 0,0.17867 -0.1416,0.32667 -0.31814,0.32667 h -5.072 c -0.17493,0 -0.31613,-0.148 -0.31613,-0.32667 v 0 c 0,-0.184 0.1412,-0.33067 0.31613,-0.33067 h 5.072 c 0.17654,0 0.31814,0.14667 0.31814,0.33067 v 0"
         style="fill:#5a7b97;fill-opacity:1;fill-rule:nonzero;stroke:none;stroke-width:0.133333" />
      <path
         id="path88"
         d="m 97.860169,245.77626 c 0,0.208 -0.1604,0.372 -0.36093,0.372 h -5.7532 c -0.2,0 -0.36134,-0.164 -0.36134,-0.372 v 0 c 0,-0.20534 0.16134,-0.372 0.36134,-0.372 h 5.7532 c 0.20053,0 0.36093,0.16666 0.36093,0.372 v 0"
         style="fill:#5a7b97;fill-opacity:1;fill-rule:nonzero;stroke:none;stroke-width:0.133333" />
      <path
         id="path89"
         d="m 97.826839,288.42692 c 0,0.62533 -0.41934,1.13067 -0.93547,1.13067 h -4.53853 c -0.51614,0 -0.9348,-0.50534 -0.9348,-1.13067 v -1.624 c 0,-0.62533 0.41866,-1.13333 0.9348,-1.13333 h 4.53853 c 0.51613,0 0.93547,0.508 0.93547,1.13333 v 1.624"
         style="fill:#5a7b97;fill-opacity:1;fill-rule:nonzero;stroke:none;stroke-width:0.133333" />
      <path
         id="path90"
         d="m 98.454969,289.74692 h -7.66507 v -2.828 h 7.66507 v 2.828"
         style="fill:#5a7b97;fill-opacity:1;fill-rule:nonzero;stroke:none;stroke-width:0.133333" />
      <path
         id="path91"
         d="m 99.034169,290.50559 h -8.824 v -2.69867 h 8.824 v 2.69867"
         style="fill:#5a7b97;fill-opacity:1;fill-rule:nonzero;stroke:none;stroke-width:0.133333" />
      <path
         id="path92"
         d="M 106.7831,246.13759 H 28.406571 v -1.05867 H 106.7831 v 1.05867"
         style="fill:#5a7b97;fill-opacity:1;fill-rule:nonzero;stroke:none;stroke-width:0.133333" />
      <path
         id="path93"
         d="m 42.138838,240.46159 c 0,0 9.172933,-1.52933 11.761466,-3.88133 3.0568,0 4.351467,0 4.351467,0 l 0.705733,-2.588 h 5.483333 v -1.352 h 1.044267 v -1.23734 h 4.458933 v 1.17734 h 2.068667 l 1.764133,3.352 h 4.234933 l 3.161999,5.46933 -39.034931,-0.94"
         style="fill:#5a7b97;fill-opacity:1;fill-rule:nonzero;stroke:none;stroke-width:0.133333" />
      <path
         id="path94"
         d="m 106.4523,238.51092 c -0.0271,-0.16933 -0.2036,-0.45066 -0.376,-0.22666 -0.0828,0.10933 -0.0688,0.39333 -0.15306,0.53066 -0.0417,-0.0693 -0.11667,-0.0933 -0.20374,-0.068 -0.1448,0.044 -0.0776,0.0507 -0.10053,0.17734 -0.0244,0.13333 -0.0557,0.32133 -0.0692,0.464 -0.16987,0.044 -0.1396,-0.12 -0.2708,-0.15734 -0.0615,-0.0147 -0.2188,0.009 -0.2568,0.0693 -0.0651,0.0973 0.0339,0.116 0.038,0.19733 0.01,0.37467 -0.18853,0.492 -0.5484,0.552 l 0.4192,0.42 c 0.3276,0.12667 0.736,-0.032 0.99227,-0.21467 0.26093,-0.19066 0.43226,-0.51333 0.5072,-0.828 0.0595,-0.244 0.0631,-0.65866 0.0219,-0.916"
         style="fill:#5a7b97;fill-opacity:1;fill-rule:nonzero;stroke:none;stroke-width:0.133333" />
      <path
         id="path95"
         d="m 28.433105,238.51092 c 0.02653,-0.16933 0.204133,-0.45066 0.375466,-0.22666 0.08493,0.10933 0.06933,0.39333 0.153734,0.53066 0.0432,-0.0693 0.117066,-0.0933 0.2036,-0.068 0.145333,0.044 0.076,0.0507 0.101066,0.17734 0.02347,0.13333 0.05627,0.32133 0.06813,0.464 0.170933,0.044 0.1396,-0.12 0.270933,-0.15734 0.062,-0.0147 0.2208,0.009 0.2572,0.0693 0.0652,0.0973 -0.03387,0.116 -0.0364,0.19733 -0.01307,0.37467 0.186933,0.492 0.546933,0.552 l -0.419866,0.42 c -0.3276,0.12667 -0.7344,-0.032 -0.9916,-0.21467 -0.260934,-0.19066 -0.431867,-0.51333 -0.507334,-0.828 -0.0584,-0.244 -0.06307,-0.65866 -0.02187,-0.916"
         style="fill:#5a7b97;fill-opacity:1;fill-rule:nonzero;stroke:none;stroke-width:0.133333" />
      <path
         id="path96"
         d="M 105.7023,302.91359 H 29.487771 V 289.74692 H 105.7023 v 13.16667"
         style="fill:#5a7b97;fill-opacity:1;fill-rule:nonzero;stroke:none;stroke-width:0.133333" />
      <path
         id="path97"
         style="fill:#5a7b97;fill-opacity:1;fill-rule:nonzero;stroke:none;stroke-width:0.133333"
         d="m 155.01953,201.39062 c 0,10e-6 -31.1378,4.58133 -46.44141,25.58399 l 1.19727,1.27734 c 0,0 0.37695,-1.4e-4 0.37695,0.11719 0,0.10933 -0.44919,2.8457 -0.44922,2.8457 l -1.35156,1.20508 c 0,0 -0.22557,1.45972 -0.29687,1.65039 -0.0817,0.18667 -1.50196,-0.1914 -1.50196,-0.1914 l -0.45117,0.82812 0.0723,1.80078 -0.0176,2.21485 c 0,0 -1.35042,3.88078 -0.95508,4.66211 0.39626,0.79333 0,2.64843 0,2.64843 0,0 -2.19573,3.37447 -2.42187,5.23047 -0.22493,1.86533 -5.9043,51.03125 -5.9043,51.03125 h 6.61328 c -0.0199,-0.26 -0.0254,-0.53126 -0.0254,-0.80859 0,-0.35467 0.0115,-0.72813 0.0371,-1.10547 l 0.70703,-10.26563 c 0.18853,-2.76933 1.03331,-4.93007 1.88477,-4.83007 0.73134,0.092 1.22851,1.85194 1.22851,4.11328 0,0.35333 -0.0116,0.71703 -0.0371,1.0957 l -0.70703,10.26367 c -0.0369,0.54 -0.10044,1.05711 -0.18164,1.53711 h 1.31836 c -0.0276,-0.26 -0.0352,-0.53126 -0.0352,-0.80859 0,-0.35467 0.0163,-0.72813 0.0527,-1.10547 l 1.00976,-10.26563 c 0.26974,-2.76933 1.47386,-4.93007 2.68946,-4.83007 1.0448,0.092 1.75586,1.85194 1.75586,4.11328 0,0.35333 -0.0167,0.71703 -0.0527,1.0957 l -1.00781,10.26367 c -0.0547,0.54 -0.14452,1.05711 -0.26172,1.53711 h 1.75586 c -0.0285,-0.27067 -0.0449,-0.54164 -0.0449,-0.82031 0,-0.26 0.008,-0.52053 0.0352,-0.7832 l 1.00781,-10.94532 c 0.27853,-2.952 1.99733,-5.21301 3.86133,-5.04101 1.69173,0.15334 2.90039,2.27695 2.90039,4.87695 0,0.26267 -0.0111,0.5232 -0.0371,0.7832 l -1.00782,10.94922 c -0.0271,0.332 -0.08,0.66447 -0.15234,0.98047 h 3.72656 c -0.0629,-0.37867 -0.0996,-0.77373 -0.0996,-1.17773 0,-0.22533 0.0175,-0.46003 0.0352,-0.69336 l 1.03516,-11.24414 c 0.27867,-3.03466 2.31514,-5.33105 4.54687,-5.12305 2.06093,0.188 3.57422,2.4485 3.57422,5.17383 0,0.236 -0.0188,0.46197 -0.0371,0.69531 l -1.03516,11.24414 c -0.036,0.38666 -0.0984,0.76367 -0.18945,1.125 h 3.7168 c -0.008,-0.17067 -0.0156,-0.34344 -0.0156,-0.52344 0,-0.26133 0.008,-0.52125 0.0332,-0.78125 l 1.14648,-12.46093 c 0.31467,-3.36667 2.57416,-5.90236 5.04883,-5.67969 2.28666,0.20933 3.95312,2.70328 3.95312,5.72461 0,0.26133 -0.0105,0.52383 -0.0371,0.78516 l -1.14257,12.45898 c -0.0187,0.16 -0.0371,0.32323 -0.0625,0.47656 h 5.00586 c -0.0467,-0.27867 -0.0645,-0.5679 -0.0645,-0.86523 v -12.51172 c 0,-3.37467 2.48446,-6.12109 5.56446,-6.12109 1.52933,0 2.92364,0.68168 3.93164,1.79101 1.008,1.10534 1.63086,2.63941 1.63086,4.33008 v 12.51172 c 0,0.29733 -0.0192,0.58656 -0.0645,0.86523 h 5.14063 c -0.044,-0.27867 -0.0625,-0.5679 -0.0625,-0.86523 v -12.51172 c 0,-3.37467 2.47578,-6.12109 5.53711,-6.12109 1.52933,0 2.91583,0.68168 3.92383,1.79101 0.99867,1.10534 1.62109,2.63941 1.62109,4.33008 v 12.51172 c 0,0.29733 -0.0178,0.58656 -0.0644,0.86523 h 5.69921 c -0.0453,-0.27867 -0.0625,-0.5679 -0.0625,-0.86523 v -12.51172 c 0,-3.37467 2.47454,-6.12109 5.53321,-6.12109 1.532,0 2.9184,0.68168 3.92773,1.79101 0.99867,1.10534 1.61914,2.63941 1.61914,4.33008 v 12.51172 c 0,0.29733 -0.0172,0.58656 -0.0625,0.86523 h 17.83203 c -0.072,-0.316 -0.10633,-0.6387 -0.125,-0.9707 l -0.46875,-11.15625 c -0.124,-3.00533 1.98099,-5.54434 4.70899,-5.65235 h 0.19922 c 2.628,0 4.83364,2.30557 4.95898,5.24024 l 0.47656,11.14648 c 0.0187,0.47466 -0.0196,0.94325 -0.0996,1.39258 h 36.26954 l -6.30274,-42.53515 c 0,0 -13.20319,-17.48117 -52.50586,-14.92383 v 4.17578 h -1.72851 v -3.59961 h -6.13086 v 3.26758 h -7.14649 v -1.69336 l -0.59765,-0.58399 v -2.17187 l -1.30469,-1.30469 h -8.84766 l -3.91601,-11.93555 h 0.71093 v -8.41992 l -1.77343,-1.76953 h -2.98828 l -5.92188,-14.93555 -1.29687,-1.07031 v -1.29687 z m -15.7793,15.04688 v 4.2207 l -2.81445,1.18164 v -4.21875 z m -16.93359,7.35352 v 4.2207 l -2.08203,1.17969 v -4.22071 z m -9.32617,7.23828 v 3.25 l -1.60547,0.91211 v -3.25196 z m 45.63867,2.12109 c 1.03466,0 1.97182,0.42361 2.64648,1.09961 0.676,0.67467 1.09766,1.61139 1.09766,2.63672 v 7.08398 c -2.55734,0.007 -5.04918,0.0995 -7.47851,0.27149 v -7.35547 c 0,-2.06 1.6717,-3.73633 3.73437,-3.73633 z m -12.39648,0.84375 c 1.036,0.028 1.95984,0.49466 2.61718,1.22266 0.656,0.72533 1.05339,1.71606 1.02539,2.80273 l -0.17382,6.76563 c -2.59066,0.23467 -5.09315,0.55917 -7.50782,0.95117 l 0.20313,-7.91016 c 0.056,-2.172 1.77594,-3.8867 3.83594,-3.83203 z m -10.50586,1.89258 c 1.53067,0 2.73828,1.19526 2.73828,2.94726 l -0.62305,7.79102 c -2.23067,0.51866 -4.38328,1.08155 -6.43555,1.68555 l 0.59571,-8.69141 c 0.15373,-1.81866 1.59096,-3.43603 3.26562,-3.69336 0.15334,-0.0307 0.31632,-0.0391 0.45899,-0.0391 z m -8.95508,3.09766 c 1.3052,0 2.3125,0.9641 2.3125,2.4121 l -0.80078,7.88477 c -2.1068,0.648 -4.0944,1.31271 -5.9668,1.99805 l 1.10547,-9.2168 c 0.23387,-1.53066 1.5499,-2.84412 2.9707,-3.05078 0.12706,-0.0187 0.25277,-0.0273 0.37891,-0.0273 z m -7.6875,2.92773 c 1.09693,0 1.96094,0.79054 1.96094,1.97851 l -1.09766,8.0918 c -1.7104,0.62533 -3.31253,1.25953 -4.78906,1.88086 l 1.0625,-9.41797 c 0.19733,-1.26 1.31355,-2.33119 2.52929,-2.50586 0.1088,-0.0173 0.22519,-0.0273 0.33399,-0.0273 z m -6.02344,3.61523 c 0.70253,0 1.25195,0.68632 1.25195,1.70899 l -0.73046,7.31445 c -1.09014,0.492 -2.10449,0.97103 -3.04102,1.42969 l 0.68359,-8.26367 c 0.136,-1.088 0.8467,-2.01659 1.6211,-2.16992 0.0715,-0.0187 0.1439,-0.0195 0.21484,-0.0195 z m 101.46875,2.61524 h 2.33594 v 4.44336 h -2.33594 z m -105.7168,0.20508 c 0.5844,0 1.03515,0.62828 1.03516,1.57226 l -0.60351,6.69922 c -0.92656,0.46667 -1.76332,0.90822 -2.51172,1.32422 l 0.5664,-7.58203 c 0.10827,-1.008 0.69439,-1.8601 1.33399,-1.9961 0.0629,-0.0107 0.11674,-0.0176 0.17968,-0.0176 z m 121.07618,2.35546 1.80078,0.72852 v 3.88281 l -1.80078,-0.73047 z m -124.83985,0.875 c 0.58587,0 1.04492,0.63023 1.04492,1.57422 l -0.48632,5.4043 c -1.1156,0.62667 -1.97088,1.13866 -2.54688,1.5 l 0.47656,-6.46094 c 0.10733,-1 0.70118,-1.864 1.33985,-2 0.0547,-0.008 0.11921,-0.0175 0.17187,-0.0176 z m 135.92969,3.10157 1.80078,1.04883 v 5.19531 l -1.80078,-1.05078 z m -84.17773,0.63476 c 1.26134,0 2.39484,0.51203 3.21484,1.33203 0.81867,0.82933 1.33203,1.97333 1.33203,3.22266 v 9.30664 c 0,0.10934 -2.8e-4,0.20778 -0.0176,0.31445 -2.99867,0.108 -6.01306,0.26157 -9.01172,0.46289 -0.0533,-0.25333 -0.0703,-0.516 -0.0703,-0.77734 v -9.30664 c 0,-2.51066 2.03274,-4.55469 4.55274,-4.55469 z m 14.7832,0.6543 c 1.25867,0 2.39465,0.51531 3.22266,1.33398 0.828,0.828 1.33203,1.96399 1.33203,3.22266 v 8.88672 c -2.97067,-0.0907 -6.0229,-0.1083 -9.10157,-0.0723 v -8.81445 c 0,-2.512 2.03355,-4.55664 4.54688,-4.55664 z m -28.44727,0.93945 c 2.008,0.08 3.58203,1.747 3.58203,3.73633 v 0.15235 l -0.11523,8.35351 c -0.0187,0.44 -0.11814,0.85419 -0.27148,1.24219 -2.46666,0.19734 -4.89592,0.42158 -7.28125,0.65625 -0.009,-0.036 -0.01,-0.0623 -0.01,-0.0996 v -0.15234 l 0.19727,-10.30665 c 0.0907,-2.06933 1.82777,-3.67136 3.89843,-3.58203 z m 81.76172,0.52735 c 2.176,0.11333 2.62696,2.90429 2.62695,2.90429 v 3.50977 l -4.53906,-0.59961 -0.22461,-3.86523 c 0,0 -0.0379,-2.06122 2.13672,-1.94922 z m -93.14062,1.41601 c 1.5292,0 2.72656,1.12544 2.72656,2.77344 l -0.69922,8.45312 c 0,0.54533 -0.0647,1.07088 -0.19141,1.54688 -2.15987,0.244 -4.26541,0.48628 -6.29101,0.73828 l 0.7207,-10 c 0.16147,-1.71067 1.60032,-3.23194 3.27539,-3.47461 0.15253,-0.0267 0.31526,-0.0371 0.45899,-0.0371 z m 68.57422,0.084 c 4.83867,0.22533 4.87695,5.36523 4.87695,5.36523 l -0.22656,6.29883 h -7.3125 v -1.57617 h -2.32618 l -0.15039,-5.81055 c 0,0 0.29868,-4.50001 5.13868,-4.27734 z m -13.28321,0.52929 c 0.31819,0.002 0.65883,0.0657 1.01758,0.22071 1.91333,0.82533 2.43895,1.76479 2.62695,3.93945 0.18667,2.176 -0.15234,5.66406 -0.15234,5.66406 l -2.88672,0.26367 -2.92383,-8.92968 c 0,0 0.93957,-1.16492 2.31836,-1.15821 z m -64.40039,1.14258 c 1.29587,0 2.3125,0.96278 2.3125,2.41211 l -0.8457,8.29102 c 0,0.55066 -0.0457,1.04304 -0.13477,1.48437 -2.06307,0.26933 -4.03303,0.54078 -5.8789,0.80078 0,-0.044 0.009,-0.0908 0.0176,-0.13476 l 1.17187,-9.77539 c 0.24373,-1.53067 1.54679,-2.84474 2.97852,-3.05274 0.12547,-0.0173 0.2529,-0.0254 0.3789,-0.0254 z m -7.77734,1.69922 c 1.09839,0 1.96287,0.81736 1.96289,2.05469 l -1.24219,9.51367 v 0.082 c -1.67493,0.24933 -3.22355,0.48561 -4.64648,0.71094 l 1.0625,-9.74024 c 0.19894,-1.296 1.31409,-2.42308 2.52929,-2.59375 0.1072,-0.0173 0.22506,-0.0273 0.33399,-0.0273 z m 102.97656,1.76758 c 3.22666,0 2.81445,4.31445 2.81445,4.31445 l 0.0156,5.02344 h -5.53125 l -0.18555,-5.84961 c 0,0 -0.33728,-3.48828 2.88672,-3.48828 z m -108.91992,0.62109 c 0.71145,0 1.26171,0.72558 1.26172,1.82422 l -0.79297,8.39258 c -1.08014,0.18 -2.0689,0.34099 -2.95117,0.48633 l 0.65625,-8.36524 c 0.12506,-1.16 0.83723,-2.16031 1.62109,-2.32031 0.0724,-0.0173 0.14374,-0.0176 0.20508,-0.0176 z m 116.4043,0.54883 c 0.13174,0.001 0.27249,0.012 0.42382,0.0332 2.412,0.33466 2.47657,3.31446 2.47657,3.31446 l 0.77343,9.05468 c -2.64533,-0.108 -4.36484,-0.10742 -4.46484,-0.10742 l -1.0332,-10.20703 c 0,0 -0.152,-2.10401 1.82422,-2.08789 z m 7.28515,0.79688 c 0.13132,9.7e-4 0.27113,0.0122 0.42188,0.0332 2.42133,0.33866 2.47656,3.31836 2.47656,3.31836 l 0.75586,8.75781 c -1.59334,-0.15333 -3.11661,-0.26827 -4.50195,-0.34961 L 230.7793,268.125 c 0,0 -0.14158,-2.09863 1.82812,-2.08398 z m 5.82617,0.79101 c 0.097,0.001 0.20109,0.011 0.3125,0.0312 1.78133,0.316 1.81836,3.11328 1.81836,3.11328 l 0.59375,8.74219 c -1.116,-0.15467 -2.22317,-0.28697 -3.3125,-0.4043 l -0.75586,-9.52343 c 0,0 -0.11135,-1.97854 1.34375,-1.95899 z m -134.10547,0.32617 c 0.57708,0 1.03516,0.63147 1.03516,1.57813 l -0.62109,6.94922 c -1.0536,0.18 -1.8806,0.3223 -2.44727,0.43164 l 0.51172,-6.94141 c 0.1088,-1.008 0.70166,-1.86142 1.3418,-1.99609 0.062,-0.009 0.11716,-0.0215 0.17968,-0.0215 z m 138.85352,0.8086 c 0.0818,8.8e-4 0.16976,0.0116 0.26367,0.0312 1.50266,0.31466 1.53907,3.11523 1.53907,3.11523 l 0.47656,8.32422 c -0.92667,-0.17867 -1.86416,-0.3408 -2.79883,-0.49414 l -0.61328,-9.01953 c 0,0 -0.0936,-1.97022 1.13281,-1.95703 z m 4.06445,1.83984 c 0.0632,-0.003 0.13133,0.002 0.20508,0.0176 1.17867,0.25467 1.37696,3.04492 1.37695,3.04492 l 0.79102,7.5332 c -0.72,-0.2 -1.45689,-0.37816 -2.21289,-0.54882 l -0.9082,-8.03907 c 0,0 -0.19934,-1.96254 0.74804,-2.00781 z m 3.0625,0.51758 c 0.0426,-0.002 0.0886,0.007 0.13868,0.0234 0.81067,0.27067 1,3.06054 1,3.06054 l 0.71093,7.78321 c -0.48667,-0.168 -0.98905,-0.33086 -1.51172,-0.49219 l -0.81054,-8.38086 c 0,0 -0.16682,-1.96887 0.47265,-1.99414 z m -49.94921,13.68555 h 1.05078 c 4.89467,0.0573 5.23046,5.12109 5.23046,5.12109 l 0.39454,10.57422 -7.42578,-14.47461 z m 27.73632,1.76953 c 0.13176,0.001 0.2725,0.0137 0.42383,0.0352 2.412,0.332 2.47656,3.31055 2.47656,3.31055 l 0.77344,9.06641 c -1.92667,-0.0467 -3.49284,-0.0716 -4.46484,-0.0996 l -1.03516,-10.22852 c 0,0 -0.15019,-2.10435 1.82617,-2.08398 z m 7.28516,0.79297 c 0.13138,6.9e-4 0.27104,0.0105 0.42187,0.0312 2.42,0.344 2.47461,3.32226 2.47461,3.32226 l 0.73047,8.43555 h -0.002 c -1.548,-0.036 -3.05933,-0.0813 -4.47266,-0.10938 h -0.01 l -0.97071,-9.58593 c 0,0 -0.14252,-2.10423 1.82813,-2.09375 z m 5.82617,0.39648 c 0.097,0.001 0.20108,0.0104 0.3125,0.0312 1.78267,0.332 1.81836,3.25 1.81836,3.25 l 0.53906,8.23828 c -1.09067,-0.0267 -2.2054,-0.0647 -3.30273,-0.082 l -0.71289,-9.39648 c 0,0 -0.1094,-2.0583 1.3457,-2.04102 z m 4.74805,0.39648 c 0.0818,0.001 0.16967,0.0109 0.26367,0.0312 1.50267,0.316 1.53906,3.11719 1.53906,3.11719 l 0.45899,8.10938 c -0.88266,-0.0373 -1.81877,-0.0645 -2.77344,-0.0898 l -0.62109,-9.21093 c 0,0 -0.0947,-1.97783 1.13281,-1.95704 z m 3.78515,0.45508 c 0.0626,-0.003 0.13013,0.004 0.20313,0.0195 1.18,0.24 1.37891,3.04102 1.37891,3.04102 l 0.83593,7.87695 c -0.65733,-0.0267 -1.38548,-0.0554 -2.16015,-0.082 l -1.00782,-8.84766 c 0,0 -0.18867,-1.96445 0.75,-2.00781 z m 3.00782,0.73242 c 0.0426,-0.002 0.0887,0.005 0.13867,0.0215 0.812,0.272 1.00195,3.0625 1.00195,3.0625 l 0.66406,7.23633 c -0.42267,-0.0253 -0.91727,-0.0436 -1.47461,-0.0703 l -0.80273,-8.25781 c 0,0 -0.16572,-1.96706 0.47266,-1.99219 z" />
      <path
         id="path146"
         d="M 666.69336,318.32279 H 0.02578875 V 296.91225 H 666.69336 v 21.41054"
         style="fill:#5a7b97;fill-opacity:1;fill-rule:nonzero;stroke:none;stroke-width:0.137497" />
    </g>
  </g>
</svg>
