<?xml version="1.0" encoding="UTF-8" standalone="no"?>
<!-- Created with Inkscape (http://www.inkscape.org/) -->

<svg
   version="1.1"
   id="svg1"
   width="666.69336"
   height="317.77332"
   viewBox="0 0 666.69336 317.77332"
   sodipodi:docname="skyline-1.svg"
   inkscape:version="1.4.2 (ebf0e940, 2025-05-08)"
   xmlns:inkscape="http://www.inkscape.org/namespaces/inkscape"
   xmlns:sodipodi="http://sodipodi.sourceforge.net/DTD/sodipodi-0.dtd"
   xmlns="http://www.w3.org/2000/svg"
   xmlns:svg="http://www.w3.org/2000/svg">
  <defs
     id="defs1" />
  <sodipodi:namedview
     id="namedview1"
     pagecolor="#ffffff"
     bordercolor="#000000"
     borderopacity="0.25"
     inkscape:showpageshadow="2"
     inkscape:pageopacity="0.0"
     inkscape:pagecheckerboard="0"
     inkscape:deskcolor="#d1d1d1"
     inkscape:zoom="0.80828089"
     inkscape:cx="332.1865"
     inkscape:cy="308.67982"
     inkscape:window-width="1512"
     inkscape:window-height="920"
     inkscape:window-x="0"
     inkscape:window-y="34"
     inkscape:window-maximized="0"
     inkscape:current-layer="group-R5">
    <inkscape:page
       x="0"
       y="0"
       inkscape:label="1"
       id="page1"
       width="666.69336"
       height="317.77332"
       margin="0"
       bleed="0" />
  </sodipodi:namedview>
  <g
     id="g1"
     inkscape:groupmode="layer"
     inkscape:label="1">
    <g
       id="group-R5">
      <path
         id="path21"
         d="m 302.38181,122.94533 h -94.532 V 159.504 h 94.532 v -36.55867"
         style="fill:#7299b5;fill-opacity:1;fill-rule:nonzero;stroke:none;stroke-width:0.133333" />
      <path
         id="path22"
         d="m 304.50581,123.82266 c 0,4.06934 -21.95467,7.36934 -49.03733,7.36934 -27.08267,0 -49.03734,-3.3 -49.03734,-7.36934 0,-4.06933 21.95467,-7.36933 49.03734,-7.36933 27.08266,0 49.03733,3.3 49.03733,7.36933"
         style="fill:#7299b5;fill-opacity:1;fill-rule:nonzero;stroke:none;stroke-width:0.133333" />
      <path
         id="path23"
         d="m 304.50581,131.98 c 0,4.07066 -21.95467,7.36933 -49.03733,7.36933 -27.08267,0 -49.03734,-3.29867 -49.03734,-7.36933 0,-4.06934 21.95467,-7.36934 49.03734,-7.36934 27.08266,0 49.03733,3.3 49.03733,7.36934"
         style="fill:#7299b5;fill-opacity:1;fill-rule:nonzero;stroke:none;stroke-width:0.133333" />
      <path
         id="path24"
         d="m 304.50581,131.98 h -98.07467 v -8.15734 h 98.07467 V 131.98"
         style="fill:#7299b5;fill-opacity:1;fill-rule:nonzero;stroke:none;stroke-width:0.133333" />
      <path
         id="path25"
         d="m 272.14314,114.07733 c -0.18666,-1.49866 0,-8.244 0,-8.244 h -2.56 v -4.12266 h -14.11466 -1.61067 -14.11467 v 4.12266 h -2.56133 c 0,0 0.188,6.74534 0,8.244 -0.18667,1.49867 -2.06,1.81067 -2.06,1.81067 v 3.31066 l 18.736,1.78267 v 0.15333 l 0.804,-0.0773 0.80667,0.0773 v -0.15333 l 18.736,-1.78267 V 115.888 c 0,0 -1.87334,-0.312 -2.06134,-1.81067"
         style="fill:#7299b5;fill-opacity:1;fill-rule:nonzero;stroke:none;stroke-width:0.133333" />
      <path
         id="path26"
         d="m 255.46848,98.870668 h -2.08 v 4.122662 h 2.08 v -4.122662"
         style="fill:#7299b5;fill-opacity:1;fill-rule:nonzero;stroke:none;stroke-width:0.133333" />
      <path
         id="path27"
         d="m 253.96181,97.633328 h -0.33067 c 0,0 0.32267,-0.22 0.272,-0.448 -0.0507,-0.22933 -0.196,-0.51733 -0.272,-0.62666 -0.076,-0.11067 -0.47466,-0.17067 -0.484,-0.28934 -0.0107,-0.11733 -0.1,-0.29733 0,-0.44666 0.1,-0.14934 0.13867,-0.20934 0.1,-0.31867 -0.04,-0.11067 -0.528,-0.28933 -0.668,-0.716 -0.13866,-0.428 -0.91466,-1.03467 -1.004,-1.11467 -0.0893,-0.08 1.29334,0.11867 1.532,0.508 0.23867,0.38667 0.70667,0.82534 0.76667,0.656 0.0587,-0.16933 -0.0813,-0.656 0.36667,-0.896 0.448,-0.23733 0.59866,0.408 0.59866,0.63734 0,0.22933 1.51067,0.16933 1.73067,0.62666 0.21867,0.45734 -1.45333,0.0907 -1.592,0.61734 -0.13867,0.52666 0.0387,0.49733 -0.10933,0.91466 -0.14934,0.41867 -0.10934,0.736 0.0293,0.896 0.14,0.15867 0.29867,0.16934 0.16933,0.31734 -0.12933,0.15066 -0.41733,0.20933 -0.14933,0.448 0.268,0.23866 0.61733,0.31866 0.45733,0.588 -0.15866,0.268 -1.52266,0.396 -1.80133,0.23733 -0.27733,-0.15867 -0.19867,-0.70533 0.13067,-1.02267 0.328,-0.32 0.492,-0.648 0.376,-0.608"
         style="fill:#7299b5;fill-opacity:1;fill-rule:nonzero;stroke:none;stroke-width:0.133333" />
      <path
         id="path46"
         d="m 421.54181,145.424 v -10.38 h 0.70666 v -1.836 h -0.70666 v -1.272 l 1.41466,-1.41067 h -1.41466 v -8.89867 h -16.31067 v -1.624 l 0.516,-0.46933 -0.516,-1.55467 -0.89467,1.60134 0.33067,0.32933 -0.0467,1.55333 h -3.344 v -6.544 h 0.47067 V 114.308 h -1.45733 c 0,0 0.98666,-4.568 -4.00267,-7.34533 v -1.224 h 0.46933 v -0.91734 h -1.12933 c 0,0 -0.14,-1.07733 -1.07733,-1.07733 0,0 -0.84667,0.0187 -1.14667,1.112 h -0.884 v 0.812 h 0.86667 v 1.236 c 0,0 -3.372,0.988 -4.21867,3.60133 v -7.556 h 0.45733 V 102.208 h -3 v -1.69467 h -0.708 v -2.258662 h 1.16534 v -0.42534 l -1.14667,-1.14666 c 0,0 0.15867,-12.76267 -11.42133,-18.48267 v -1.308 l -1.836,-0.67067 v -4.400001 h 0.4 v -0.684 h -1.012 l -0.68267,-3.86 h -1.412 l -1.60133,-2.848 h -0.35334 -0.352 l -1.6,2.848 h -1.41333 l -0.68267,3.86 h -1.012 v 0.684 h 0.4 v 4.400001 l -1.836,0.67067 v 1.308 c -11.58,5.72 -11.42133,18.48267 -11.42133,18.48267 l -1.148,1.14666 v 0.42534 h 1.16533 v 2.258662 h -0.70666 v 1.69467 h -3.00134 v 0.74133 h 0.45867 v 7.556 c -0.84667,-2.61333 -4.21867,-3.60133 -4.21867,-3.60133 v -1.236 h 0.86534 v -0.812 h -0.884 c -0.29867,-1.09333 -1.14534,-1.112 -1.14534,-1.112 -0.93733,0 -1.07866,1.07733 -1.07866,1.07733 h -1.12934 v 0.91734 h 0.47067 v 1.224 c -4.98933,2.77733 -4.00133,7.34533 -4.00133,7.34533 h -1.45867 v 0.61066 h 0.47067 v 6.544 h -3.34267 l -0.0467,-1.55333 0.32934,-0.32933 -0.89467,-1.60134 -0.51733,1.55467 0.51733,0.46933 v 1.624 h -16.312 v 8.89867 h -1.412 l 1.412,1.41067 v 1.272 h -0.70666 v 1.836 h 0.70666 v 10.38 h -8.544 v 13.79333 h 62.06933 62.072 V 145.424 h -8.54666"
         style="fill:#7299b5;fill-opacity:1;fill-rule:nonzero;stroke:none;stroke-width:0.133333" />
      <path
         id="path47"
         d="m 369.14847,59.369327 h -0.752 v -1.46 h -0.66 v 1.46 h -0.848 v 0.752 h 0.848 v 5.132 h 0.66 v -5.132 h 0.752 v -0.752"
         style="fill:#7299b5;fill-opacity:1;fill-rule:nonzero;stroke:none;stroke-width:0.133333" />
      <path
         id="path49"
         d="m 341.97114,101.31467 h -0.376 v -0.72934 h -0.32933 v 0.72934 h -0.424 v 0.376 h 0.424 v 2.56533 h 0.32933 v -2.56533 h 0.376 v -0.376"
         style="fill:#7299b5;fill-opacity:1;fill-rule:nonzero;stroke:none;stroke-width:0.133333" />
      <path
         id="path50"
         d="m 395.15647,101.31467 h -0.376 v -0.72934 h -0.32933 v 0.72934 h -0.42533 v 0.376 h 0.42533 v 2.56533 h 0.32933 v -2.56533 h 0.376 v -0.376"
         style="fill:#7299b5;fill-opacity:1;fill-rule:nonzero;stroke:none;stroke-width:0.133333" />
      <path
         id="path146"
         d="M 666.68047,179.02 H 0.01289281 V 158.88666 H 666.68047 V 179.02"
         style="fill:#7299b5;fill-opacity:1;fill-rule:nonzero;stroke:none;stroke-width:0.133333" />
      <path
         id="path146-7"
         d="M 666.68047,321.63551 H 0.01289406 V 158.88666 H 666.68047 v 162.74885"
         style="fill:#7299b5;fill-opacity:1;fill-rule:nonzero;stroke:none;stroke-width:0.379086" />
    </g>
  </g>
</svg>
