<?xml version="1.0" encoding="UTF-8" standalone="no" ?>
<!DOCTYPE svg PUBLIC "-//W3C//DTD SVG 1.1//EN" "http://www.w3.org/Graphics/SVG/1.1/DTD/svg11.dtd">
<svg xmlns="http://www.w3.org/2000/svg" xmlns:xlink="http://www.w3.org/1999/xlink" version="1.1" width="225.96939" height="499.99999999999994" viewBox="3.272057953750007 -0.49999907136867705 122.7586229311 271.62666352973736" xml:space="preserve">
<desc>Created with Fabric.js 5.3.0</desc>
<defs>
</defs>
<g transform="matrix(1 0 0 1 64.6513694193 135.3133326935)" id="QmRQqIGQUoQxGd08RLw7J"  >
<g style=""   >
		<g transform="matrix(1 0 0 0.9778841938 -32.4137942241 88.7737292317)" id="Rtrg8NfhJ8L8mjJR7ZWeO"  >
<path style="stroke: rgb(0,0,0); stroke-width: 0; stroke-dasharray: none; stroke-linecap: butt; stroke-dashoffset: 0; stroke-linejoin: miter; stroke-miterlimit: 4; fill: rgb(69,156,183); fill-rule: nonzero; opacity: 1;"  transform=" translate(0.000005, 0)" d="M -28.96552 17.75862 L -28.96552 -48.10345 L 28.96551 -17.216870000000004 L 28.96551 48.103449999999995 z" stroke-linecap="round" />
</g>
		<g transform="matrix(1 0 0 1 -32.4137919828 17.2031920104)" id="8BEB_MBf1E0hoOJNlcF0a"  >
<path style="stroke: rgb(0,0,0); stroke-width: 0; stroke-dasharray: none; stroke-linecap: butt; stroke-dashoffset: 0; stroke-linejoin: miter; stroke-miterlimit: 4; fill: rgb(69,156,183); fill-rule: nonzero; opacity: 1;"  transform=" translate(0.000005, 0)" d="M -28.96552 17.75862 L -28.96552 -48.10345 L 28.96551 -16.379310000000004 L 28.96551 48.103449999999995 z" stroke-linecap="round" />
</g>
		<g transform="matrix(1 0 0 1 32.4137942241 -87.7098826935)" id="PC4SEoXXm2j1pZwKd8DWQ"  >
<path style="stroke: rgb(0,0,0); stroke-width: 0; stroke-dasharray: none; stroke-linecap: butt; stroke-dashoffset: 0; stroke-linejoin: miter; stroke-miterlimit: 4; fill: rgb(237,144,66); fill-rule: nonzero; opacity: 1;"  transform=" translate(0.000005, 0)" d="M -28.96552 16.85772 L -28.96552 -48.103449999999995 L 28.96551 -16.379309999999997 L 28.96551 48.10345 z" stroke-linecap="round" />
</g>
		<g transform="matrix(-1 0 0 1 32.4137942241 17.2031920104)" id="1gGXJQl8MPRYclHnMntnZ"  >
<path style="stroke: rgb(0,0,0); stroke-width: 0; stroke-dasharray: none; stroke-linecap: butt; stroke-dashoffset: 0; stroke-linejoin: miter; stroke-miterlimit: 4; fill: rgb(103,124,131); fill-rule: nonzero; opacity: 1;"  transform=" translate(0.000005, 0)" d="M -28.96552 17.75862 L -28.96552 -48.10345 L 28.96551 -16.379310000000004 L 28.96551 48.103449999999995 z" stroke-linecap="round" />
</g>
		<g transform="matrix(1 0 0 1 -0.6296179524 -35.2318277242)" id="pmNvCeN0OiE3CHMaE9l76"  >
<path style="stroke: rgb(0,0,0); stroke-width: 0; stroke-dasharray: none; stroke-linecap: butt; stroke-dashoffset: 0; stroke-linejoin: miter; stroke-miterlimit: 4; fill: rgb(237,144,66); fill-rule: nonzero; opacity: 1;"  transform=" translate(0.000005, 0.000005)" d="M -58.03279 -0.32787 L 0.4918000000000049 31.31147 L 58.03278 -0.32787000000000077 L 0.4918000000000049 -31.31148 z" stroke-linecap="round" />
</g>
</g>
</g>
</svg>