<?xml version="1.0" encoding="UTF-8" standalone="no" ?>
<!DOCTYPE svg PUBLIC "-//W3C//DTD SVG 1.1//EN" "http://www.w3.org/Graphics/SVG/1.1/DTD/svg11.dtd">
<svg xmlns="http://www.w3.org/2000/svg" xmlns:xlink="http://www.w3.org/1999/xlink" version="1.1" width="500" height="214.30436" viewBox="3.2720521914646383 -0.4999982758000101 633.7404006586708 271.6266619386" xml:space="preserve">
<desc>Created with Fabric.js 5.3.0</desc>
<defs>
</defs>
<g transform="matrix(1 0 0 1 320.1422525208 135.3133326935)" id="XuBsPhpPDRsbOt_n5E0gB"  >
<g style=""   >
		<g transform="matrix(1 0 0 1 -255.4908831015 0)" id="QmRQqIGQUoQxGd08RLw7J"  >
<g style=""   >
		<g transform="matrix(1 0 0 0.9778841938 -32.4137942241 88.7737292317)" id="Rtrg8NfhJ8L8mjJR7ZWeO"  >
<path style="stroke: rgb(0,0,0); stroke-width: 0; stroke-dasharray: none; stroke-linecap: butt; stroke-dashoffset: 0; stroke-linejoin: miter; stroke-miterlimit: 4; fill: rgb(69,156,183); fill-rule: nonzero; opacity: 1;"  transform=" translate(0.000005, 0)" d="M -28.96552 17.75862 L -28.96552 -48.10345 L 28.96551 -17.216870000000004 L 28.96551 48.103449999999995 z" stroke-linecap="round" />
</g>
		<g transform="matrix(1 0 0 1 -32.4137919828 17.2031920104)" id="8BEB_MBf1E0hoOJNlcF0a"  >
<path style="stroke: rgb(0,0,0); stroke-width: 0; stroke-dasharray: none; stroke-linecap: butt; stroke-dashoffset: 0; stroke-linejoin: miter; stroke-miterlimit: 4; fill: rgb(69,156,183); fill-rule: nonzero; opacity: 1;"  transform=" translate(0.000005, 0)" d="M -28.96552 17.75862 L -28.96552 -48.10345 L 28.96551 -16.379310000000004 L 28.96551 48.103449999999995 z" stroke-linecap="round" />
</g>
		<g transform="matrix(1 0 0 1 32.4137942241 -87.7098826935)" id="PC4SEoXXm2j1pZwKd8DWQ"  >
<path style="stroke: rgb(0,0,0); stroke-width: 0; stroke-dasharray: none; stroke-linecap: butt; stroke-dashoffset: 0; stroke-linejoin: miter; stroke-miterlimit: 4; fill: rgb(237,144,66); fill-rule: nonzero; opacity: 1;"  transform=" translate(0.000005, 0)" d="M -28.96552 16.85772 L -28.96552 -48.103449999999995 L 28.96551 -16.379309999999997 L 28.96551 48.10345 z" stroke-linecap="round" />
</g>
		<g transform="matrix(-1 0 0 1 32.4137942241 17.2031920104)" id="1gGXJQl8MPRYclHnMntnZ"  >
<path style="stroke: rgb(0,0,0); stroke-width: 0; stroke-dasharray: none; stroke-linecap: butt; stroke-dashoffset: 0; stroke-linejoin: miter; stroke-miterlimit: 4; fill: rgb(103,124,131); fill-rule: nonzero; opacity: 1;"  transform=" translate(0.000005, 0)" d="M -28.96552 17.75862 L -28.96552 -48.10345 L 28.96551 -16.379310000000004 L 28.96551 48.103449999999995 z" stroke-linecap="round" />
</g>
		<g transform="matrix(1 0 0 1 -0.6296179524 -35.2318277242)" id="pmNvCeN0OiE3CHMaE9l76"  >
<path style="stroke: rgb(0,0,0); stroke-width: 0; stroke-dasharray: none; stroke-linecap: butt; stroke-dashoffset: 0; stroke-linejoin: miter; stroke-miterlimit: 4; fill: rgb(237,144,66); fill-rule: nonzero; opacity: 1;"  transform=" translate(0.000005, 0.000005)" d="M -58.03279 -0.32787 L 0.4918000000000049 31.31147 L 58.03278 -0.32787000000000077 L 0.4918000000000049 -31.31148 z" stroke-linecap="round" />
</g>
</g>
</g>
		<g transform="matrix(1 0 0 1 -134.0527763031 16.0587693858)" id="Te0q8f0hXwHkdj6MDoteh"  >
<path style="stroke: rgb(0,0,0); stroke-width: 0; stroke-dasharray: none; stroke-linecap: butt; stroke-dashoffset: 0; stroke-linejoin: miter; stroke-miterlimit: 4; fill: rgb(69,156,183); fill-rule: nonzero; opacity: 1;"  transform=" translate(-37.855945, -50.67002)" d="M 0 101.34003 L 0 0 L 44.42035 0 C 61.70219 0 75.71189 14.0097 75.71189 31.29154 C 75.71189 49.25601 61.14881 63.819100000000006 43.184329999999996 63.819100000000006 L 9.497729999999997 63.819100000000006 L 9.497729999999997 101.34004000000002 z M 39.53108 55.9645 C 39.64108 55.9639 41.44736 55.952 42.391200000000005 55.94554 C 55.87180000000001 55.853320000000004 66.75133000000001 44.89911 66.75133000000001 31.418190000000003 L 66.75133000000001 31.417920000000002 C 66.75133000000001 18.321740000000002 56.134780000000006 7.705190000000002 43.03860000000001 7.705190000000002 L 9.580590000000008 7.705190000000002 C 9.580590000000008 7.705190000000002 9.580590000000008 55.27638 9.580590000000008 55.778890000000004 C 9.580590000000008 56.04381 28.08208000000001 56.02684000000001 39.53110000000001 55.964510000000004 z" stroke-linecap="round" />
</g>
		<g transform="matrix(1 0 0 1 -47.7880667249 41.2680483151)" id="5OR9_qsXATNfU_4H7vVSV"  >
<path style="stroke: rgb(0,0,0); stroke-width: 0; stroke-dasharray: none; stroke-linecap: butt; stroke-dashoffset: 0; stroke-linejoin: miter; stroke-miterlimit: 4; fill: rgb(69,156,183); fill-rule: nonzero; opacity: 1;"  transform=" translate(0, 0.000005)" d="M -37.19212 -49.34319 L -28.325120000000002 -49.34319 L 2.2167499999999976 15.845639999999996 L 28.653529999999996 -49.34319 L 37.192119999999996 -49.34319 C 37.192119999999996 -49.34319 5.172419999999995 29.474539999999998 4.187189999999994 31.609190000000005 C 3.201969999999994 33.743840000000006 -3.858790000000006 49.343180000000004 -17.159280000000006 49.343180000000004 C -30.459770000000006 49.343180000000004 -34.23646000000001 45.40229 -34.23646000000001 45.40229 L -31.219220000000007 38.53447 C -31.219220000000007 38.53447 -24.901490000000006 41.6256 -17.159290000000006 41.4614 C -6.321850000000005 41.2972 -1.7241500000000052 23.72741 -1.7241500000000052 23.72741 z" stroke-linecap="round" />
</g>
		<g transform="matrix(1 0 0 1 51.5754915231 18.1373315806)" id="Y-pGkvmiUHWla8DuhU9ue"  >
<path style="stroke: rgb(0,0,0); stroke-width: 0; stroke-dasharray: none; stroke-linecap: butt; stroke-dashoffset: 0; stroke-linejoin: miter; stroke-miterlimit: 4; fill: rgb(236,144,66); fill-rule: nonzero; opacity: 1;"  transform=" translate(0, 0)" d="M -43.99625 52.74858 L -43.99625 -52.74858 L -6.296510000000005 -52.74858 C 21.479409999999994 -52.74858 43.996249999999996 -30.231749999999998 43.996249999999996 -2.4558199999999957 L 43.996249999999996 0.0011500000000044253 C 43.996249999999996 29.13275 20.380419999999997 52.748580000000004 -8.751180000000005 52.748580000000004 z M -7.21766 43.83176 C 15.657179999999999 43.83176 34.2009 25.288040000000002 34.2009 2.4132000000000033 L 34.2009 -4.350819999999997 C 34.2009 -26.16115 16.520129999999998 -43.84191 -5.290190000000003 -43.84191 L -34.89294 -43.84191 L -34.89294 43.83175 z" stroke-linecap="round" />
</g>
		<g transform="matrix(1 0 0 1 145.4125408861 32.7351637583)" id="7NQrqp5sQsn9LEgAxgLrH"  >
<path style="stroke: rgb(0,0,0); stroke-width: 0; stroke-dasharray: none; stroke-linecap: butt; stroke-dashoffset: 0; stroke-linejoin: miter; stroke-miterlimit: 4; fill: rgb(236,144,66); fill-rule: nonzero; opacity: 1;"  transform=" translate(0.0000036809, 0.0000129416)" d="M -2.97352 39.58771 C -14.32656 39.43219 -31.55209 32.26954 -31.70761 12.05181 C -31.73623 -1.0593199999999996 -18.78748 -8.153469999999999 -10.25065 -9.700020000000002 C -1.7138100000000005 -11.246570000000002 17.04131 -10.100670000000003 24.24264 -6.913080000000003 C 25.245800000000003 -19.045060000000003 23.174210000000002 -30.328580000000002 0.7589700000000015 -31.54851 C -10.279609999999998 -32.00363 -21.9471 -24.798000000000002 -21.9471 -24.798000000000002 L -25.85936 -31.54851 C -25.85936 -31.54851 -14.565499999999998 -40.037710000000004 0.7589700000000015 -39.57249 C 20.481150000000003 -39.489670000000004 31.52306 -27.760400000000004 31.70765 -18.26611 C 31.70103 -10.683860000000001 31.70765 37.41041 31.70765 37.41041 L 24.24264 37.41041 C 24.24264 37.41041 24.25892 30.662789999999998 24.24264 25.27977 C 18.681430000000002 34.237089999999995 8.379500000000002 39.74322 -2.9735300000000002 39.5877 z M -0.95214 -2.54929 C -33.37289 -2.11702 -29.194209999999998 30.447830000000003 -0.95214 30.73601 C 27.28994 31.0242 24.06827 1.1971099999999986 24.06827 1.1971099999999986 C 24.06827 1.1971099999999986 15.042099999999998 -3.1256600000000017 -0.95214 -2.5492900000000014 z" stroke-linecap="round" />
</g>
		<g transform="matrix(1 0 0 1 285.1625408861 32.7351637583)" id="nni1uLeiX56kSiP-U9LoL"  >
<path style="stroke: rgb(0,0,0); stroke-width: 0; stroke-dasharray: none; stroke-linecap: butt; stroke-dashoffset: 0; stroke-linejoin: miter; stroke-miterlimit: 4; fill: rgb(236,144,66); fill-rule: nonzero; opacity: 1;"  transform=" translate(0.0000036809, 0.0000129416)" d="M -2.97352 39.58771 C -14.32656 39.43219 -31.55209 32.26954 -31.70761 12.05181 C -31.73623 -1.0593199999999996 -18.78748 -8.153469999999999 -10.25065 -9.700020000000002 C -1.7138100000000005 -11.246570000000002 17.04131 -10.100670000000003 24.24264 -6.913080000000003 C 25.245800000000003 -19.045060000000003 23.174210000000002 -30.328580000000002 0.7589700000000015 -31.54851 C -10.279609999999998 -32.00363 -21.9471 -24.798000000000002 -21.9471 -24.798000000000002 L -25.85936 -31.54851 C -25.85936 -31.54851 -14.565499999999998 -40.037710000000004 0.7589700000000015 -39.57249 C 20.481150000000003 -39.489670000000004 31.52306 -27.760400000000004 31.70765 -18.26611 C 31.70103 -10.683860000000001 31.70765 37.41041 31.70765 37.41041 L 24.24264 37.41041 C 24.24264 37.41041 24.25892 30.662789999999998 24.24264 25.27977 C 18.681430000000002 34.237089999999995 8.379500000000002 39.74322 -2.9735300000000002 39.5877 z M -0.95214 -2.54929 C -33.37289 -2.11702 -29.194209999999998 30.447830000000003 -0.95214 30.73601 C 27.28994 31.0242 24.06827 1.1971099999999986 24.06827 1.1971099999999986 C 24.06827 1.1971099999999986 15.042099999999998 -3.1256600000000017 -0.95214 -2.5492900000000014 z" stroke-linecap="round" />
</g>
		<g transform="matrix(1 0 0 1 217.0225739025 20.5190853394)" id="VUPBZ6RprIMLYVic-obyr"  >
<path style="stroke: rgb(0,0,0); stroke-width: 0; stroke-dasharray: none; stroke-linecap: butt; stroke-dashoffset: 0; stroke-linejoin: miter; stroke-miterlimit: 4; fill: rgb(236,144,66); fill-rule: nonzero; opacity: 1;"  transform=" translate(0, -0.0000032799)" d="M -11.44068 -17.99394 L -21.949150000000003 -17.99394 L -21.949150000000003 -26.638009999999998 L -11.440680000000002 -26.638009999999998 L -11.440680000000002 -50.36682 L -3.4745800000000022 -50.36682 L -3.4745800000000022 -26.638009999999998 L 21.949149999999996 -26.638009999999998 L 21.949149999999996 -17.99394 L -3.474580000000003 -17.99394 L -3.474580000000003 30.373900000000003 L -3.474580000000003 30.373900000000003 C -3.474580000000003 34.111720000000005 -1.755550000000003 37.64188 1.1870099999999972 39.9468 C 4.1295699999999975 42.251720000000006 7.968679999999997 43.075300000000006 11.597729999999997 42.18014 L 21.949149999999996 39.62679 L 21.949149999999996 47.75153 C 21.949149999999996 47.75153 -12.118650000000002 61.81933 -11.440680000000008 24.700680000000002 C -10.762710000000007 -12.417959999999997 -11.440680000000008 -17.993949999999995 -11.440680000000008 -17.993949999999995 z" stroke-linecap="round" />
</g>
		<g transform="matrix(1 0 0 1 38.3044174293 105.1585765867)" id="32NdKBsR1PHPmUVg_Jvtx"  >
<path style="stroke: rgb(0,0,0); stroke-width: 0; stroke-dasharray: none; stroke-linecap: butt; stroke-dashoffset: 0; stroke-linejoin: miter; stroke-miterlimit: 4; fill: rgb(69,156,183); fill-rule: nonzero; opacity: 1;"  transform=" translate(0.000005, -0.000005)" d="M -11.01224 -14.84983 L -0.7833199999999998 -14.84983 C 3.7200800000000003 -14.84983 7.50783 -11.473210000000002 8.023 -6.999370000000001 C 8.08357 -6.47334 8.046479999999999 -6.0385800000000005 8.00889 -5.394880000000001 C 7.786419999999999 0.19465999999999983 1.3348099999999992 1.7241399999999993 1.3348099999999992 1.7241399999999993 L 11.012229999999999 14.84984 L 3.6707399999999986 14.84984 L -5.116800000000001 2.61402 L -5.116800000000001 14.84984 L -11.012240000000002 14.84984 z M -2.41259 -2.18548 C -0.28149999999999986 -2.18548 1.4460900000000003 -3.9130700000000003 1.4460900000000003 -6.04416 C 1.4460900000000003 -8.2134 -0.3124199999999997 -9.97191 -2.4816599999999998 -9.97191 L -5.116759999999999 -9.97191 L -5.116759999999999 -2.185479999999999 z" stroke-linecap="round" />
</g>
		<g transform="matrix(0.9732672149 0 0 0.9732672149 64.0104468589 105.2259210095)" id="CeezU6BLVBnTAvWtfAPqB"  >
<path style="stroke: rgb(240,47,2); stroke-width: 0; stroke-dasharray: none; stroke-linecap: butt; stroke-dashoffset: 0; stroke-linejoin: miter; stroke-miterlimit: 4; fill: rgb(69,156,183); fill-rule: nonzero; opacity: 1;"  transform=" translate(-15.01742, -15.7788)" d="M 15.01742 0 C 23.307029999999997 0 30.03484 7.0689 30.03484 15.7788 C 30.03484 24.4887 23.30704 31.5576 15.01742 31.5576 C 6.72781 31.5576 0 24.4887 0 15.7788 C 0 7.068900000000001 6.7278 0 15.01742 0 z M 6.25224 15.77879 C 6.25224 20.862470000000002 10.17904 24.98835 15.017409999999998 24.98835 C 19.85578 24.98835 23.782579999999996 20.862470000000002 23.782579999999996 15.77879 C 23.782579999999996 10.69511 19.855779999999996 6.569230000000001 15.017409999999996 6.569230000000001 C 10.179039999999997 6.569230000000001 6.252239999999997 10.695110000000001 6.252239999999997 15.77879 z" stroke-linecap="round" />
</g>
		<g transform="matrix(1 0 0 1 96.4487250488 104.938671933)" id="HkihnaXTNnS0VTwm51wG_"  >
<path style="stroke: rgb(0,0,0); stroke-width: 0; stroke-dasharray: none; stroke-linecap: butt; stroke-dashoffset: 0; stroke-linejoin: miter; stroke-miterlimit: 4; fill: rgb(69,156,183); fill-rule: nonzero; opacity: 1;"  transform=" translate(0, 0)" d="M -16.77266 15.06974 L -11.844199999999997 -15.06974 L -6.120829999999997 -15.06974 L -0.07948999999999717 2.375309999999999 L 6.279810000000003 -15.06974 L 12.321150000000003 -15.06974 L 16.772660000000002 15.06974 L 10.41336 15.06974 L 7.710660000000001 -3.6660199999999996 L 1.9872900000000007 15.06974 L -1.3513399999999995 15.06974 L -7.908259999999999 -3.6660199999999996 L -10.89029 15.06974 z" stroke-linecap="round" />
</g>
		<g transform="matrix(1 0 0 1 127.3161745948 104.938671933)" id="f40FKHDBYU9oLVFr6PV3C"  >
<path style="stroke: rgb(0,0,0); stroke-width: 0; stroke-dasharray: none; stroke-linecap: butt; stroke-dashoffset: 0; stroke-linejoin: miter; stroke-miterlimit: 4; fill: rgb(69,156,183); fill-rule: nonzero; opacity: 1;"  transform=" translate(-0.000005, 0)" d="M -14.09479 15.06974 L -2.3010599999999997 -15.06974 L 1.8348300000000002 -15.06974 L 14.0948 15.06974 L 7.44783 15.06974 L 4.34591 8.33247 L -5.255269999999999 8.33247 L -7.766349999999999 15.06974 z M 3.35481 3.31031 L -0.27063999999999977 -6.979850000000001 L -3.92588 3.3103099999999994 z" stroke-linecap="round" />
</g>
		<g transform="matrix(1 0 0 1.0165895364 189.8487360999 104.6886715867)" id="k63EKsu0Twrw8xJuQMGDZ"  >
<path style="stroke: rgb(0,0,0); stroke-width: 0; stroke-dasharray: none; stroke-linecap: butt; stroke-dashoffset: 0; stroke-linejoin: miter; stroke-miterlimit: 4; fill: rgb(103,124,131); fill-rule: nonzero; opacity: 1;"  transform=" translate(0.000005, 0)" d="M -14.0948 15.06974 L -2.3010699999999993 -15.06974 L 1.8348200000000006 -15.06974 L 14.09479 15.06974 L 7.44782 15.06974 L 4.3459 8.33247 L -5.255279999999999 8.33247 L -7.766359999999999 15.06974 z M 3.35481 3.31031 L -0.27063999999999977 -6.979850000000001 L -3.92588 3.3103099999999994 z" stroke-linecap="round" />
</g>
		<g transform="matrix(1 0 0 1.0165895364 265.7008775402 104.6886715867)" id="kFBSSNTG9fQwnhlZSVM6J"  >
<path style="stroke: rgb(0,0,0); stroke-width: 0; stroke-dasharray: none; stroke-linecap: butt; stroke-dashoffset: 0; stroke-linejoin: miter; stroke-miterlimit: 4; fill: rgb(103,124,131); fill-rule: nonzero; opacity: 1;"  transform=" translate(-0.000005, 0)" d="M -14.09479 15.06974 L -2.3010599999999997 -15.06974 L 1.8348300000000002 -15.06974 L 14.0948 15.06974 L 7.44783 15.06974 L 4.34591 8.33247 L -5.255269999999999 8.33247 L -7.766349999999999 15.06974 z M 3.35481 3.31031 L -0.27063999999999977 -6.979850000000001 L -3.92588 3.3103099999999994 z" stroke-linecap="round" />
</g>
		<g transform="matrix(1 0 0 1.0165895364 213.3757610999 104.6886715867)" id="J5rZeBJ-JP5u--OOk7ipH"  >
<path style="stroke: rgb(0,0,0); stroke-width: 0; stroke-dasharray: none; stroke-linecap: butt; stroke-dashoffset: 0; stroke-linejoin: miter; stroke-miterlimit: 4; fill: rgb(103,124,131); fill-rule: nonzero; opacity: 1;"  transform=" translate(-9.43223, -15.06974)" d="M 0 30.13948 L 0 0 L 8.91482 0 C 14.40985 0 18.86446 4.4546 18.86446 9.94964 C 18.86446 14.98614 14.781570000000002 19.069029999999998 9.745070000000002 19.069029999999998 L 5.634890000000002 19.069029999999998 L 5.634890000000002 30.13948 z M 8.79769 14.61237 C 11.364749999999999 14.61237 13.44577 12.53135 13.44577 9.96429 L 13.44577 9.52272 C 13.44577 6.96058 11.368749999999999 4.883559999999999 8.80661 4.883559999999999 L 5.418699999999999 4.883559999999999 L 5.418699999999999 14.612369999999999 z" stroke-linecap="round" />
</g>
		<g transform="matrix(1 0 0 1.0165895364 228.4001139767 104.6886715867)" id="1EFS2wg9ICcD-z1yhY9PU"  >
<path style="stroke: rgb(0,0,0); stroke-width: 0; stroke-dasharray: none; stroke-linecap: butt; stroke-dashoffset: 0; stroke-linejoin: miter; stroke-miterlimit: 4; fill: rgb(103,124,131); fill-rule: nonzero; opacity: 1;"  transform=" translate(-0.000005, 0)" d="M -2.72459 -15.06974 L 2.7245999999999997 -15.06974 L 2.7245999999999997 15.06974 L -2.72459 15.06974 z" stroke-linecap="round" />
</g>
		<g transform="matrix(1 0 0 1.0165895364 243.3405567513 104.6886715867)" id="MK7T7XFu2C1Nu4dzCvH4P"  >
<path style="stroke: rgb(0,0,0); stroke-width: 0; stroke-dasharray: none; stroke-linecap: butt; stroke-dashoffset: 0; stroke-linejoin: miter; stroke-miterlimit: 4; fill: rgb(103,124,131); fill-rule: nonzero; opacity: 1;"  transform=" translate(-0.000005, 0)" d="M -2.77006 15.06974 L 3.27224 15.06974 L 3.27224 -10.43251 L 9.26553 -10.43251 L 9.26553 -15.06974 L -9.26552 -15.06974 L -9.26552 -10.43251 L -2.7700500000000003 -10.43251 z" stroke-linecap="round" />
</g>
		<g transform="matrix(1 0 0 1.0165895247 286.7443130236 104.6886715867)" id="M7B3mboIlApX7diWzBApN"  >
<path style="stroke: rgb(0,0,0); stroke-width: 0; stroke-dasharray: none; stroke-linecap: butt; stroke-dashoffset: 0; stroke-linejoin: miter; stroke-miterlimit: 4; fill: rgb(103,124,131); fill-rule: nonzero; opacity: 1;"  transform=" translate(0, 0)" d="M -6.94864 15.06974 L -6.94864 -15.06974 L -1.3595199999999998 -15.06974 L -1.3595199999999998 9.15812 L 6.948640000000001 9.15812 L 6.948640000000001 15.06974 z" stroke-linecap="round" />
</g>
		<g transform="matrix(1 0 0 1 304.5150738796 104.6886715867)" id="fD-5PHl94-k4eyn-q4yiH"  >
<path style="stroke: rgb(0,0,0); stroke-width: 0; stroke-dasharray: none; stroke-linecap: butt; stroke-dashoffset: 0; stroke-linejoin: miter; stroke-miterlimit: 4; fill: rgb(103,124,131); fill-rule: nonzero; opacity: 1;"  transform=" translate(0, 0)" d="M -7.6284 -15.31974 L -7.6284 15.31974 L 7.6284 15.31974 L 7.6284 9.55918 L -1.132929999999999 9.55918 L -1.132929999999999 3.36583 L 7.0034 3.36583 L 7.0034 -2.47858 L -1.132929999999999 -2.47858 L -1.132929999999999 -10.22934 L 7.6284 -10.22934 L 7.6284 -15.31974 z" stroke-linecap="round" />
</g>
		<g transform="matrix(0.9341818723 0 0 0.987301788 163.5797533288 104.6886715867)" id="TsXWH9Oj2U0Ift-w_GhyL"  >
<path style="stroke: rgb(0,0,0); stroke-width: 0; stroke-dasharray: none; stroke-linecap: butt; stroke-dashoffset: 0; stroke-linejoin: miter; stroke-miterlimit: 4; fill: rgb(103,124,131); fill-rule: nonzero; opacity: 1;"  transform=" translate(-0.0000048294, -0.0000017423)" d="M 3.96228 -9.09456 C 7.53152 -9.42292 10.72921 -7.01622 10.72921 -7.01622 L 10.72921 -14.47671 C 10.72921 -14.47671 3.73095 -16.816850000000002 -1.7243200000000005 -14.47671 C -7.17959 -12.13657 -10.9292 -5.4135100000000005 -10.72094 0.5930299999999988 C -10.42584 8.617149999999999 -5.217230000000001 13.798369999999998 0.4749099999999995 15.057859999999998 C 6.16705 16.317349999999998 10.72921 14.584989999999998 10.72921 14.584989999999998 L 10.72921 7.1831799999999975 C 10.72921 7.1831799999999975 8.0572 9.385149999999998 4.319570000000001 9.119209999999997 C 0.9183600000000007 8.877199999999997 -3.5778799999999995 6.485249999999997 -3.6212399999999993 0.5930299999999971 C -3.6671199999999993 -5.6415900000000025 0.3336700000000006 -8.760740000000004 3.9622900000000003 -9.094560000000003 z" stroke-linecap="round" />
</g>
</g>
</g>
</svg>