<?xml version="1.0" encoding="UTF-8" standalone="no" ?>
<!DOCTYPE svg PUBLIC "-//W3C//DTD SVG 1.1//EN" "http://www.w3.org/Graphics/SVG/1.1/DTD/svg11.dtd">
<svg xmlns="http://www.w3.org/2000/svg" xmlns:xlink="http://www.w3.org/1999/xlink" version="1.1" width="633.7403891340347" height="271.6266619386" viewBox="3.272057953749993 -0.4999982758000101 633.7403891340347 271.6266619386" xml:space="preserve">
<desc>Created with Fabric.js 5.3.0</desc>
<defs>
</defs>
<g transform="matrix(1 0 0 1 64.6513694193 135.3133326935)" id="QmRQqIGQUoQxGd08RLw7J"  >
<g style=""   >
		<g transform="matrix(1 0 0 0.9778841938 -32.4137942241 88.7737292317)" id="Rtrg8NfhJ8L8mjJR7ZWeO"  >
<path style="stroke: rgb(0,0,0); stroke-width: 0; stroke-dasharray: none; stroke-linecap: butt; stroke-dashoffset: 0; stroke-linejoin: miter; stroke-miterlimit: 4; fill: rgb(69,156,183); fill-rule: nonzero; opacity: 1;"  transform=" translate(0.000005, 0)" d="M -28.96552 17.75862 L -28.96552 -48.10345 L 28.96551 -17.216870000000004 L 28.96551 48.103449999999995 z" stroke-linecap="round" />
</g>
		<g transform="matrix(1 0 0 1 -32.4137919828 17.2031920104)" id="8BEB_MBf1E0hoOJNlcF0a"  >
<path style="stroke: rgb(0,0,0); stroke-width: 0; stroke-dasharray: none; stroke-linecap: butt; stroke-dashoffset: 0; stroke-linejoin: miter; stroke-miterlimit: 4; fill: rgb(69,156,183); fill-rule: nonzero; opacity: 1;"  transform=" translate(0.000005, 0)" d="M -28.96552 17.75862 L -28.96552 -48.10345 L 28.96551 -16.379310000000004 L 28.96551 48.103449999999995 z" stroke-linecap="round" />
</g>
		<g transform="matrix(1 0 0 1 32.4137942241 -87.7098826935)" id="PC4SEoXXm2j1pZwKd8DWQ"  >
<path style="stroke: rgb(0,0,0); stroke-width: 0; stroke-dasharray: none; stroke-linecap: butt; stroke-dashoffset: 0; stroke-linejoin: miter; stroke-miterlimit: 4; fill: rgb(237,144,66); fill-rule: nonzero; opacity: 1;"  transform=" translate(0.000005, 0)" d="M -28.96552 16.85772 L -28.96552 -48.103449999999995 L 28.96551 -16.379309999999997 L 28.96551 48.10345 z" stroke-linecap="round" />
</g>
		<g transform="matrix(-1 0 0 1 32.4137942241 17.2031920104)" id="1gGXJQl8MPRYclHnMntnZ"  >
<path style="stroke: rgb(0,0,0); stroke-width: 0; stroke-dasharray: none; stroke-linecap: butt; stroke-dashoffset: 0; stroke-linejoin: miter; stroke-miterlimit: 4; fill: rgb(103,124,131); fill-rule: nonzero; opacity: 1;"  transform=" translate(0.000005, 0)" d="M -28.96552 17.75862 L -28.96552 -48.10345 L 28.96551 -16.379310000000004 L 28.96551 48.103449999999995 z" stroke-linecap="round" />
</g>
		<g transform="matrix(1 0 0 1 -0.6296179524 -35.2318277242)" id="pmNvCeN0OiE3CHMaE9l76"  >
<path style="stroke: rgb(0,0,0); stroke-width: 0; stroke-dasharray: none; stroke-linecap: butt; stroke-dashoffset: 0; stroke-linejoin: miter; stroke-miterlimit: 4; fill: rgb(237,144,66); fill-rule: nonzero; opacity: 1;"  transform=" translate(0.000005, 0.000005)" d="M -58.03279 -0.32787 L 0.4918000000000049 31.31147 L 58.03278 -0.32787000000000077 L 0.4918000000000049 -31.31148 z" stroke-linecap="round" />
</g>
</g>
</g>
<g transform="matrix(1 0 0 1 186.0894762177 151.3721020793)" id="Te0q8f0hXwHkdj6MDoteh"  >
<path style="stroke: rgb(0,0,0); stroke-width: 0; stroke-dasharray: none; stroke-linecap: butt; stroke-dashoffset: 0; stroke-linejoin: miter; stroke-miterlimit: 4; fill: rgb(69,156,183); fill-rule: nonzero; opacity: 1;"  transform=" translate(-37.855945, -50.67002)" d="M 0 101.34003 L 0 0 L 44.42035 0 C 61.70219 0 75.71189 14.0097 75.71189 31.29154 C 75.71189 49.25601 61.14881 63.819100000000006 43.184329999999996 63.819100000000006 L 9.497729999999997 63.819100000000006 L 9.497729999999997 101.34004000000002 z M 39.53108 55.9645 C 39.64108 55.9639 41.44736 55.952 42.391200000000005 55.94554 C 55.87180000000001 55.853320000000004 66.75133000000001 44.89911 66.75133000000001 31.418190000000003 L 66.75133000000001 31.417920000000002 C 66.75133000000001 18.321740000000002 56.134780000000006 7.705190000000002 43.03860000000001 7.705190000000002 L 9.580590000000008 7.705190000000002 C 9.580590000000008 7.705190000000002 9.580590000000008 55.27638 9.580590000000008 55.778890000000004 C 9.580590000000008 56.04381 28.08208000000001 56.02684000000001 39.53110000000001 55.964510000000004 z" stroke-linecap="round" />
</g>
<g transform="matrix(1 0 0 1 272.3541857959 176.5813810086)" id="5OR9_qsXATNfU_4H7vVSV"  >
<path style="stroke: rgb(0,0,0); stroke-width: 0; stroke-dasharray: none; stroke-linecap: butt; stroke-dashoffset: 0; stroke-linejoin: miter; stroke-miterlimit: 4; fill: rgb(69,156,183); fill-rule: nonzero; opacity: 1;"  transform=" translate(0, 0.000005)" d="M -37.19212 -49.34319 L -28.325120000000002 -49.34319 L 2.2167499999999976 15.845639999999996 L 28.653529999999996 -49.34319 L 37.192119999999996 -49.34319 C 37.192119999999996 -49.34319 5.172419999999995 29.474539999999998 4.187189999999994 31.609190000000005 C 3.201969999999994 33.743840000000006 -3.858790000000006 49.343180000000004 -17.159280000000006 49.343180000000004 C -30.459770000000006 49.343180000000004 -34.23646000000001 45.40229 -34.23646000000001 45.40229 L -31.219220000000007 38.53447 C -31.219220000000007 38.53447 -24.901490000000006 41.6256 -17.159290000000006 41.4614 C -6.321850000000005 41.2972 -1.7241500000000052 23.72741 -1.7241500000000052 23.72741 z" stroke-linecap="round" />
</g>
<g transform="matrix(1 0 0 1 371.7177440439 153.4506642741)" id="Y-pGkvmiUHWla8DuhU9ue"  >
<path style="stroke: rgb(0,0,0); stroke-width: 0; stroke-dasharray: none; stroke-linecap: butt; stroke-dashoffset: 0; stroke-linejoin: miter; stroke-miterlimit: 4; fill: rgb(236,144,66); fill-rule: nonzero; opacity: 1;"  transform=" translate(0, 0)" d="M -43.99625 52.74858 L -43.99625 -52.74858 L -6.296510000000005 -52.74858 C 21.479409999999994 -52.74858 43.996249999999996 -30.231749999999998 43.996249999999996 -2.4558199999999957 L 43.996249999999996 0.0011500000000044253 C 43.996249999999996 29.13275 20.380419999999997 52.748580000000004 -8.751180000000005 52.748580000000004 z M -7.21766 43.83176 C 15.657179999999999 43.83176 34.2009 25.288040000000002 34.2009 2.4132000000000033 L 34.2009 -4.350819999999997 C 34.2009 -26.16115 16.520129999999998 -43.84191 -5.290190000000003 -43.84191 L -34.89294 -43.84191 L -34.89294 43.83175 z" stroke-linecap="round" />
</g>
<g transform="matrix(1 0 0 1 465.5547934069 168.0484964518)" id="7NQrqp5sQsn9LEgAxgLrH"  >
<path style="stroke: rgb(0,0,0); stroke-width: 0; stroke-dasharray: none; stroke-linecap: butt; stroke-dashoffset: 0; stroke-linejoin: miter; stroke-miterlimit: 4; fill: rgb(236,144,66); fill-rule: nonzero; opacity: 1;"  transform=" translate(0.0000036809, 0.0000129416)" d="M -2.97352 39.58771 C -14.32656 39.43219 -31.55209 32.26954 -31.70761 12.05181 C -31.73623 -1.0593199999999996 -18.78748 -8.153469999999999 -10.25065 -9.700020000000002 C -1.7138100000000005 -11.246570000000002 17.04131 -10.100670000000003 24.24264 -6.913080000000003 C 25.245800000000003 -19.045060000000003 23.174210000000002 -30.328580000000002 0.7589700000000015 -31.54851 C -10.279609999999998 -32.00363 -21.9471 -24.798000000000002 -21.9471 -24.798000000000002 L -25.85936 -31.54851 C -25.85936 -31.54851 -14.565499999999998 -40.037710000000004 0.7589700000000015 -39.57249 C 20.481150000000003 -39.489670000000004 31.52306 -27.760400000000004 31.70765 -18.26611 C 31.70103 -10.683860000000001 31.70765 37.41041 31.70765 37.41041 L 24.24264 37.41041 C 24.24264 37.41041 24.25892 30.662789999999998 24.24264 25.27977 C 18.681430000000002 34.237089999999995 8.379500000000002 39.74322 -2.9735300000000002 39.5877 z M -0.95214 -2.54929 C -33.37289 -2.11702 -29.194209999999998 30.447830000000003 -0.95214 30.73601 C 27.28994 31.0242 24.06827 1.1971099999999986 24.06827 1.1971099999999986 C 24.06827 1.1971099999999986 15.042099999999998 -3.1256600000000017 -0.95214 -2.5492900000000014 z" stroke-linecap="round" />
</g>
<g transform="matrix(1 0 0 1 605.3047934069 168.0484964518)" id="nni1uLeiX56kSiP-U9LoL"  >
<path style="stroke: rgb(0,0,0); stroke-width: 0; stroke-dasharray: none; stroke-linecap: butt; stroke-dashoffset: 0; stroke-linejoin: miter; stroke-miterlimit: 4; fill: rgb(236,144,66); fill-rule: nonzero; opacity: 1;"  transform=" translate(0.0000036809, 0.0000129416)" d="M -2.97352 39.58771 C -14.32656 39.43219 -31.55209 32.26954 -31.70761 12.05181 C -31.73623 -1.0593199999999996 -18.78748 -8.153469999999999 -10.25065 -9.700020000000002 C -1.7138100000000005 -11.246570000000002 17.04131 -10.100670000000003 24.24264 -6.913080000000003 C 25.245800000000003 -19.045060000000003 23.174210000000002 -30.328580000000002 0.7589700000000015 -31.54851 C -10.279609999999998 -32.00363 -21.9471 -24.798000000000002 -21.9471 -24.798000000000002 L -25.85936 -31.54851 C -25.85936 -31.54851 -14.565499999999998 -40.037710000000004 0.7589700000000015 -39.57249 C 20.481150000000003 -39.489670000000004 31.52306 -27.760400000000004 31.70765 -18.26611 C 31.70103 -10.683860000000001 31.70765 37.41041 31.70765 37.41041 L 24.24264 37.41041 C 24.24264 37.41041 24.25892 30.662789999999998 24.24264 25.27977 C 18.681430000000002 34.237089999999995 8.379500000000002 39.74322 -2.9735300000000002 39.5877 z M -0.95214 -2.54929 C -33.37289 -2.11702 -29.194209999999998 30.447830000000003 -0.95214 30.73601 C 27.28994 31.0242 24.06827 1.1971099999999986 24.06827 1.1971099999999986 C 24.06827 1.1971099999999986 15.042099999999998 -3.1256600000000017 -0.95214 -2.5492900000000014 z" stroke-linecap="round" />
</g>
<g transform="matrix(1 0 0 1 537.1648264233 155.8324180329)" id="VUPBZ6RprIMLYVic-obyr"  >
<path style="stroke: rgb(0,0,0); stroke-width: 0; stroke-dasharray: none; stroke-linecap: butt; stroke-dashoffset: 0; stroke-linejoin: miter; stroke-miterlimit: 4; fill: rgb(236,144,66); fill-rule: nonzero; opacity: 1;"  transform=" translate(0, -0.0000032799)" d="M -11.44068 -17.99394 L -21.949150000000003 -17.99394 L -21.949150000000003 -26.638009999999998 L -11.440680000000002 -26.638009999999998 L -11.440680000000002 -50.36682 L -3.4745800000000022 -50.36682 L -3.4745800000000022 -26.638009999999998 L 21.949149999999996 -26.638009999999998 L 21.949149999999996 -17.99394 L -3.474580000000003 -17.99394 L -3.474580000000003 30.373900000000003 L -3.474580000000003 30.373900000000003 C -3.474580000000003 34.111720000000005 -1.755550000000003 37.64188 1.1870099999999972 39.9468 C 4.1295699999999975 42.251720000000006 7.968679999999997 43.075300000000006 11.597729999999997 42.18014 L 21.949149999999996 39.62679 L 21.949149999999996 47.75153 C 21.949149999999996 47.75153 -12.118650000000002 61.81933 -11.440680000000008 24.700680000000002 C -10.762710000000007 -12.417959999999997 -11.440680000000008 -17.993949999999995 -11.440680000000008 -17.993949999999995 z" stroke-linecap="round" />
</g>
</svg>